<?xml version="1.0" standalone="yes"?>

<svg version="1.1" viewBox="0.0 0.0 720.0 540.0" fill="none" stroke="none" stroke-linecap="square" stroke-miterlimit="10" xmlns="http://www.w3.org/2000/svg" xmlns:xlink="http://www.w3.org/1999/xlink"><clipPath id="p.0"><path d="m0 0l720.0 0l0 540.0l-720.0 0l0 -540.0z" clip-rule="nonzero"></path></clipPath><g clip-path="url(#p.0)"><path fill="#000000" fill-opacity="0.0" d="m0 0l720.0 0l0 540.0l-720.0 0z" fill-rule="nonzero"></path><path fill="#000000" fill-opacity="0.0" d="m107.0 51.06336l0 0c0 -10.126873 8.20945 -18.336323 18.336327 -18.336323l265.34308 0c4.863098 0 9.527008 1.9318542 12.965759 5.3705826c3.4387207 3.4387283 5.370575 8.102646 5.370575 12.96574l0 73.343094c0 10.126869 -8.209442 18.336327 -18.336334 18.336327l-265.34308 0c-10.126877 0 -18.336327 -8.209457 -18.336327 -18.336327z" fill-rule="nonzero"></path><path stroke="#274e13" stroke-width="3.0" stroke-linejoin="round" stroke-linecap="butt" d="m107.0 51.06336l0 0c0 -10.126873 8.20945 -18.336323 18.336327 -18.336323l265.34308 0c4.863098 0 9.527008 1.9318542 12.965759 5.3705826c3.4387207 3.4387283 5.370575 8.102646 5.370575 12.96574l0 73.343094c0 10.126869 -8.209442 18.336327 -18.336334 18.336327l-265.34308 0c-10.126877 0 -18.336327 -8.209457 -18.336327 -18.336327z" fill-rule="nonzero"></path><path fill="#274e13" d="m208.37506 52.95006l3.46875 0l0 9.3125q0 2.2187462 0.140625 2.8749962q0.21875 1.046875 1.046875 1.6875q0.84375 0.640625 2.296875 0.640625q1.484375 0 2.234375 -0.59375q0.75 -0.609375 0.890625 -1.484375q0.15625 -0.890625 0.15625 -2.9218712l0 -9.515625l3.46875 0l0 9.03125q0 3.0937462 -0.28125 4.374996q-0.28125 1.265625 -1.046875 2.15625q-0.75 0.875 -2.015625 1.40625q-1.265625 0.515625 -3.296875 0.515625q-2.46875 0 -3.734375 -0.5625q-1.265625 -0.578125 -2.015625 -1.484375q-0.734375 -0.90625 -0.96875 -1.90625q-0.34375 -1.484375 -0.34375 -4.359371l0 -9.171875zm16.175781 13.640621l3.3125 -0.515625q0.203125 0.96875 0.84375 1.46875q0.65625 0.5 1.8125 0.5q1.28125 0 1.921875 -0.46875q0.4375 -0.328125 0.4375 -0.890625q0 -0.375 -0.234375 -0.609375q-0.25 -0.234375 -1.109375 -0.4375q-3.984375 -0.875 -5.046875 -1.609375q-1.484375 -0.9999962 -1.484375 -2.7968712q0 -1.625 1.28125 -2.71875q1.28125 -1.109375 3.96875 -1.109375q2.546875 0 3.78125 0.84375q1.25 0.828125 1.71875 2.453125l-3.109375 0.578125q-0.1875 -0.734375 -0.75 -1.109375q-0.5625 -0.390625 -1.59375 -0.390625q-1.296875 0 -1.859375 0.359375q-0.375 0.265625 -0.375 0.671875q0 0.34375 0.328125 0.59375q0.453125 0.328125 3.078125 0.9375q2.625 0.59375 3.671875 1.453125q1.03125 0.8749962 1.03125 2.4531212q0 1.703125 -1.4375 2.9375q-1.421875 1.234375 -4.21875 1.234375q-2.546875 0 -4.03125 -1.03125q-1.484375 -1.03125 -1.9375 -2.796875zm22.707031 3.546875l0 -1.859375q-0.6875 0.984375 -1.796875 1.5625q-1.109375 0.578125 -2.328125 0.578125q-1.265625 0 -2.265625 -0.546875q-0.984375 -0.5625 -1.4375 -1.546875q-0.4375 -1.0 -0.4375 -2.765625l0 -7.874996l3.296875 0l0 5.71875q0 2.6249962 0.171875 3.2187462q0.1875 0.59375 0.65625 0.9375q0.484375 0.34375 1.234375 0.34375q0.84375 0 1.5 -0.453125q0.671875 -0.46875 0.921875 -1.15625q0.25 -0.6875 0.25 -3.3593712l0 -5.25l3.28125 0l0 12.453121l-3.046875 0zm8.925781 -8.656246l-2.984375 -0.53125q0.5 -1.8125 1.71875 -2.671875q1.234375 -0.875 3.671875 -0.875q2.203125 0 3.28125 0.53125q1.078125 0.515625 1.515625 1.328125q0.4375 0.796875 0.4375 2.9375l-0.03125 3.8437462q0 1.640625 0.15625 2.421875q0.15625 0.78125 0.59375 1.671875l-3.265625 0q-0.125 -0.328125 -0.3125 -0.96875q-0.078125 -0.296875 -0.125 -0.390625q-0.84375 0.8125 -1.8125 1.234375q-0.953125 0.40625 -2.03125 0.40625q-1.921875 0 -3.03125 -1.046875q-1.109375 -1.046875 -1.109375 -2.640625q0 -1.046875 0.5 -1.875q0.5 -0.828125 1.40625 -1.2656212q0.921875 -0.4375 2.625 -0.765625q2.3125 -0.4375 3.203125 -0.8125l0 -0.328125q0 -0.953125 -0.46875 -1.34375q-0.46875 -0.40625 -1.765625 -0.40625q-0.890625 0 -1.390625 0.34375q-0.484375 0.34375 -0.78125 1.203125zm4.40625 2.6718712q-0.640625 0.21875 -2.015625 0.515625q-1.359375 0.28125 -1.78125 0.5625q-0.640625 0.46875 -0.640625 1.171875q0 0.6875 0.515625 1.1875q0.515625 0.5 1.3125 0.5q0.890625 0 1.6875 -0.578125q0.609375 -0.453125 0.796875 -1.09375q0.125 -0.421875 0.125 -1.609375l0 -0.65625zm-3.40625 -7.984371l1.625 -3.5l3.6875 0l-3.21875 3.5l-2.09375 0zm13.035156 13.968746l-3.296875 0l0 -12.453121l3.0625 0l0 1.78125q0.78125 -1.265625 1.40625 -1.65625q0.640625 -0.40625 1.4375 -0.40625q1.125 0 2.15625 0.625l-1.015625 2.875q-0.828125 -0.546875 -1.546875 -0.546875q-0.6875 0 -1.171875 0.390625q-0.484375 0.375 -0.765625 1.375q-0.265625 1.0 -0.265625 4.171871l0 3.84375zm6.1835938 -14.140621l0 -3.046875l3.296875 0l0 3.046875l-3.296875 0zm0 14.140621l0 -12.453121l3.296875 0l0 12.453121l-3.296875 0zm5.9179688 -6.406246q0 -1.640625 0.796875 -3.171875q0.8125 -1.53125 2.296875 -2.34375q1.484375 -0.8125 3.3125 -0.8125q2.828125 0 4.625 1.84375q1.8125 1.828125 1.8125 4.625q0 2.8281212 -1.828125 4.687496q-1.828125 1.859375 -4.59375 1.859375q-1.703125 0 -3.265625 -0.765625q-1.546875 -0.78125 -2.359375 -2.265625q-0.796875 -1.5 -0.796875 -3.6562462zm3.375 0.1875q0 1.8437462 0.875 2.8281212q0.875 0.984375 2.171875 0.984375q1.28125 0 2.15625 -0.984375q0.875 -0.984375 0.875 -2.8593712q0 -1.828125 -0.875 -2.8125q-0.875 -0.984375 -2.15625 -0.984375q-1.296875 0 -2.171875 0.984375q-0.875 0.984375 -0.875 2.84375zm10.878906 2.6718712l3.3125 -0.515625q0.203125 0.96875 0.84375 1.46875q0.65625 0.5 1.8125 0.5q1.28125 0 1.921875 -0.46875q0.4375 -0.328125 0.4375 -0.890625q0 -0.375 -0.234375 -0.609375q-0.25 -0.234375 -1.109375 -0.4375q-3.984375 -0.875 -5.046875 -1.609375q-1.484375 -0.9999962 -1.484375 -2.7968712q0 -1.625 1.28125 -2.71875q1.28125 -1.109375 3.96875 -1.109375q2.546875 0 3.78125 0.84375q1.25 0.828125 1.71875 2.453125l-3.109375 0.578125q-0.1875 -0.734375 -0.75 -1.109375q-0.5625 -0.390625 -1.59375 -0.390625q-1.296875 0 -1.859375 0.359375q-0.375 0.265625 -0.375 0.671875q0 0.34375 0.328125 0.59375q0.453125 0.328125 3.078125 0.9375q2.625 0.59375 3.671875 1.453125q1.03125 0.8749962 1.03125 2.4531212q0 1.703125 -1.4375 2.9375q-1.421875 1.234375 -4.21875 1.234375q-2.546875 0 -4.03125 -1.03125q-1.484375 -1.03125 -1.9375 -2.796875z" fill-rule="nonzero"></path><path fill="#000000" fill-opacity="0.0" d="m327.02203 112.10891l0 0c0 -11.114639 9.010193 -20.124832 20.124817 -20.124832l274.74677 0c5.3374023 0 10.456238 2.1202927 14.230408 5.894432c3.774109 3.7741318 5.894409 8.89296 5.894409 14.2304l0 80.496895c0 11.114639 -9.010193 20.124832 -20.124817 20.124832l-274.74677 0l0 0c-11.114624 0 -20.124817 -9.010193 -20.124817 -20.124832z" fill-rule="nonzero"></path><path stroke="#5b0f00" stroke-width="3.0" stroke-linejoin="round" stroke-linecap="butt" d="m327.02203 112.10891l0 0c0 -11.114639 9.010193 -20.124832 20.124817 -20.124832l274.74677 0c5.3374023 0 10.456238 2.1202927 14.230408 5.894432c3.774109 3.7741318 5.894409 8.89296 5.894409 14.2304l0 80.496895c0 11.114639 -9.010193 20.124832 -20.124817 20.124832l-274.74677 0l0 0c-11.114624 0 -20.124817 -9.010193 -20.124817 -20.124832z" fill-rule="nonzero"></path><path fill="#85200c" d="m434.39523 129.91844l-3.765625 0l-1.5 -3.90625l-6.875 0l-1.40625 3.90625l-3.6875 0l6.6875 -17.1875l3.671875 0l6.875 17.1875zm-6.375 -6.796875l-2.375 -6.375l-2.3125 6.375l4.6875 0zm7.0351562 3.25l3.3125 -0.515625q0.203125 0.96875 0.84375 1.46875q0.65625 0.5 1.8125 0.5q1.28125 0 1.921875 -0.46875q0.4375 -0.328125 0.4375 -0.890625q0 -0.375 -0.234375 -0.609375q-0.25 -0.234375 -1.109375 -0.4375q-3.984375 -0.875 -5.046875 -1.609375q-1.484375 -1.0 -1.484375 -2.796875q0 -1.625 1.28125 -2.71875q1.28125 -1.109375 3.96875 -1.109375q2.546875 0 3.78125 0.84375q1.25 0.828125 1.71875 2.453125l-3.109375 0.578125q-0.1875 -0.734375 -0.75 -1.109375q-0.5625 -0.390625 -1.59375 -0.390625q-1.296875 0 -1.859375 0.359375q-0.375 0.265625 -0.375 0.671875q0 0.34375 0.328125 0.59375q0.453125 0.328125 3.078125 0.9375q2.625 0.59375 3.671875 1.453125q1.03125 0.875 1.03125 2.453125q0 1.703125 -1.4375 2.9375q-1.421875 1.234375 -4.21875 1.234375q-2.546875 0 -4.03125 -1.03125q-1.484375 -1.03125 -1.9375 -2.796875zm13.347656 0l3.3125 -0.515625q0.203125 0.96875 0.84375 1.46875q0.65625 0.5 1.8125 0.5q1.28125 0 1.921875 -0.46875q0.4375 -0.328125 0.4375 -0.890625q0 -0.375 -0.234375 -0.609375q-0.25 -0.234375 -1.109375 -0.4375q-3.984375 -0.875 -5.046875 -1.609375q-1.484375 -1.0 -1.484375 -2.796875q0 -1.625 1.28125 -2.71875q1.28125 -1.109375 3.96875 -1.109375q2.546875 0 3.78125 0.84375q1.25 0.828125 1.71875 2.453125l-3.109375 0.578125q-0.1875 -0.734375 -0.75 -1.109375q-0.5625 -0.390625 -1.59375 -0.390625q-1.296875 0 -1.859375 0.359375q-0.375 0.265625 -0.375 0.671875q0 0.34375 0.328125 0.59375q0.453125 0.328125 3.078125 0.9375q2.625 0.59375 3.671875 1.453125q1.03125 0.875 1.03125 2.453125q0 1.703125 -1.4375 2.9375q-1.421875 1.234375 -4.21875 1.234375q-2.546875 0 -4.03125 -1.03125q-1.484375 -1.03125 -1.9375 -2.796875zm13.753906 -2.859375q0 -1.640625 0.796875 -3.171875q0.8125 -1.53125 2.296875 -2.34375q1.484375 -0.8125 3.3125 -0.8125q2.828125 0 4.625 1.84375q1.8125 1.828125 1.8125 4.625q0 2.828125 -1.828125 4.6875q-1.828125 1.859375 -4.59375 1.859375q-1.703125 0 -3.265625 -0.765625q-1.546875 -0.78125 -2.359375 -2.265625q-0.796875 -1.5 -0.796875 -3.65625zm3.375 0.1875q0 1.84375 0.875 2.828125q0.875 0.984375 2.171875 0.984375q1.28125 0 2.15625 -0.984375q0.875 -0.984375 0.875 -2.859375q0 -1.828125 -0.875 -2.8125q-0.875 -0.984375 -2.15625 -0.984375q-1.296875 0 -2.171875 0.984375q-0.875 0.984375 -0.875 2.84375zm22.894531 -2.546875l-3.25 0.578125q-0.15625 -0.96875 -0.75 -1.453125q-0.578125 -0.5 -1.5 -0.5q-1.234375 0 -1.96875 0.859375q-0.71875 0.84375 -0.71875 2.828125q0 2.21875 0.734375 3.140625q0.75 0.90625 2.0 0.90625q0.9375 0 1.53125 -0.53125q0.609375 -0.53125 0.84375 -1.828125l3.234375 0.546875q-0.5 2.21875 -1.9375 3.359375q-1.421875 1.140625 -3.828125 1.140625q-2.71875 0 -4.34375 -1.71875q-1.625 -1.734375 -1.625 -4.78125q0 -3.078125 1.625 -4.796875q1.625 -1.71875 4.40625 -1.71875q2.28125 0 3.609375 0.984375q1.34375 0.984375 1.9375 2.984375zm2.4882812 -5.375l0 -3.046875l3.296875 0l0 3.046875l-3.296875 0zm0 14.140625l0 -12.453125l3.296875 0l0 12.453125l-3.296875 0zm9.136719 -8.65625l-2.984375 -0.53125q0.5 -1.8125 1.71875 -2.671875q1.234375 -0.875 3.671875 -0.875q2.203125 0 3.28125 0.53125q1.078125 0.515625 1.515625 1.328125q0.4375 0.796875 0.4375 2.9375l-0.03125 3.84375q0 1.640625 0.15625 2.421875q0.15625 0.78125 0.59375 1.671875l-3.265625 0q-0.125 -0.328125 -0.3125 -0.96875q-0.078125 -0.296875 -0.125 -0.390625q-0.84375 0.8125 -1.8125 1.234375q-0.953125 0.40625 -2.03125 0.40625q-1.921875 0 -3.03125 -1.046875q-1.109375 -1.046875 -1.109375 -2.640625q0 -1.046875 0.5 -1.875q0.5 -0.828125 1.40625 -1.265625q0.921875 -0.4375 2.625 -0.765625q2.3125 -0.4375 3.203125 -0.8125l0 -0.328125q0 -0.953125 -0.46875 -1.34375q-0.46875 -0.40625 -1.765625 -0.40625q-0.890625 0 -1.390625 0.34375q-0.484375 0.34375 -0.78125 1.203125zm4.40625 2.671875q-0.640625 0.21875 -2.015625 0.515625q-1.359375 0.28125 -1.78125 0.5625q-0.640625 0.46875 -0.640625 1.171875q0 0.6875 0.515625 1.1875q0.515625 0.5 1.3125 0.5q0.890625 0 1.6875 -0.578125q0.609375 -0.453125 0.796875 -1.09375q0.125 -0.421875 0.125 -1.609375l0 -0.65625zm17.8945 5.984375l-3.0625 0l0 -1.828125q-0.765625 1.0625 -1.796875 1.59375q-1.03125 0.515625 -2.09375 0.515625q-2.140625 0 -3.6718445 -1.71875q-1.53125 -1.734375 -1.53125 -4.828125q0 -3.171875 1.484375 -4.8125q1.4999695 -1.65625 3.7655945 -1.65625q2.09375 0 3.609375 1.734375l0 -6.1875l3.296875 0l0 17.1875zm-8.796875 -6.5q0 2.0 0.5625 2.890625q0.796875 1.28125 2.21875 1.28125q1.140625 0 1.9375 -0.953125q0.796875 -0.96875 0.796875 -2.890625q0 -2.15625 -0.78125 -3.09375q-0.765625 -0.9375 -1.96875 -0.9375q-1.171875 0 -1.96875 0.9375q-0.796875 0.921875 -0.796875 2.765625zm11.285156 0.09375q0 -1.640625 0.796875 -3.171875q0.8125 -1.53125 2.296875 -2.34375q1.484375 -0.8125 3.3125 -0.8125q2.828125 0 4.625 1.84375q1.8125 1.828125 1.8125 4.625q0 2.828125 -1.828125 4.6875q-1.828125 1.859375 -4.59375 1.859375q-1.703125 0 -3.265625 -0.765625q-1.546875 -0.78125 -2.359375 -2.265625q-0.796875 -1.5 -0.796875 -3.65625zm3.375 0.1875q0 1.84375 0.875 2.828125q0.875 0.984375 2.171875 0.984375q1.28125 0 2.15625 -0.984375q0.875 -0.984375 0.875 -2.859375q0 -1.828125 -0.875 -2.8125q-0.875 -0.984375 -2.15625 -0.984375q-1.296875 0 -2.171875 0.984375q-0.875 0.984375 -0.875 2.84375zm10.878906 2.671875l3.3125 -0.515625q0.203125 0.96875 0.84375 1.46875q0.65625 0.5 1.8125 0.5q1.28125 0 1.921875 -0.46875q0.4375 -0.328125 0.4375 -0.890625q0 -0.375 -0.234375 -0.609375q-0.25 -0.234375 -1.109375 -0.4375q-3.984375 -0.875 -5.046875 -1.609375q-1.484375 -1.0 -1.484375 -2.796875q0 -1.625 1.28125 -2.71875q1.28125 -1.109375 3.96875 -1.109375q2.546875 0 3.78125 0.84375q1.25 0.828125 1.71875 2.453125l-3.109375 0.578125q-0.1875 -0.734375 -0.75 -1.109375q-0.5625 -0.390625 -1.59375 -0.390625q-1.296875 0 -1.859375 0.359375q-0.375 0.265625 -0.375 0.671875q0 0.34375 0.328125 0.59375q0.453125 0.328125 3.078125 0.9375q2.625 0.59375 3.671875 1.453125q1.03125 0.875 1.03125 2.453125q0 1.703125 -1.4375 2.9375q-1.421875 1.234375 -4.21875 1.234375q-2.546875 0 -4.03125 -1.03125q-1.484375 -1.03125 -1.9375 -2.796875z" fill-rule="nonzero"></path><path fill="#000000" fill-opacity="0.0" d="m337.83008 162.59123l270.1081 0l0 50.1418l-270.1081 0z" fill-rule="nonzero"></path><path fill="#5b0f00" d="m425.97 185.91748l1.671875 -0.21875q0.28125 1.421875 0.96875 2.046875q0.703125 0.625 1.6875 0.625q1.1875 0 2.0 -0.8125q0.8125 -0.828125 0.8125 -2.03125q0 -1.140625 -0.765625 -1.890625q-0.75 -0.75 -1.90625 -0.75q-0.46875 0 -1.171875 0.1875l0.1875 -1.46875q0.15625 0.015625 0.265625 0.015625q1.0625 0 1.90625 -0.546875q0.859375 -0.5625 0.859375 -1.71875q0 -0.921875 -0.625 -1.515625q-0.609375 -0.609375 -1.59375 -0.609375q-0.96875 0 -1.625 0.609375q-0.640625 0.609375 -0.828125 1.84375l-1.671875 -0.296875q0.296875 -1.6875 1.375 -2.609375q1.09375 -0.921875 2.71875 -0.921875q1.109375 0 2.046875 0.484375q0.9375 0.46875 1.421875 1.296875q0.5 0.828125 0.5 1.75q0 0.890625 -0.46875 1.609375q-0.46875 0.71875 -1.40625 1.15625q1.21875 0.265625 1.875 1.15625q0.671875 0.875 0.671875 2.1875q0 1.78125 -1.296875 3.015625q-1.296875 1.234375 -3.28125 1.234375q-1.796875 0 -2.984375 -1.0625q-1.171875 -1.0625 -1.34375 -2.765625zm16.656982 3.59375l-1.671875 0l0 -10.640625q-0.59375 0.578125 -1.578125 1.15625q-0.984375 0.5625 -1.765625 0.859375l0 -1.625q1.40625 -0.65625 2.453125 -1.59375q1.046875 -0.9375 1.484375 -1.8125l1.078125 0l0 13.65625zm9.730896 3.78125l0 -13.640625l1.53125 0l0 1.28125q0.53125 -0.75 1.203125 -1.125q0.6875 -0.375 1.640625 -0.375q1.265625 0 2.234375 0.65625q0.96875 0.640625 1.453125 1.828125q0.5 1.1875 0.5 2.59375q0 1.515625 -0.546875 2.734375q-0.546875 1.203125 -1.578125 1.84375q-1.03125 0.640625 -2.171875 0.640625q-0.84375 0 -1.515625 -0.34375q-0.65625 -0.359375 -1.078125 -0.890625l0 4.796875l-1.671875 0zm1.515625 -8.65625q0 1.90625 0.765625 2.8125q0.78125 0.90625 1.875 0.90625q1.109375 0 1.890625 -0.9375q0.796875 -0.9375 0.796875 -2.921875q0 -1.875 -0.78125 -2.8125q-0.765625 -0.9375 -1.84375 -0.9375q-1.0625 0 -1.890625 1.0q-0.8125 1.0 -0.8125 2.890625zm15.610077 1.703125l1.71875 0.21875q-0.40625 1.5 -1.515625 2.34375q-1.09375 0.828125 -2.8125 0.828125q-2.15625 0 -3.421875 -1.328125q-1.265625 -1.328125 -1.265625 -3.734375q0 -2.484375 1.265625 -3.859375q1.28125 -1.375 3.328125 -1.375q1.984375 0 3.234375 1.34375q1.25 1.34375 1.25 3.796875q0 0.140625 -0.015625 0.4375l-7.34375 0q0.09375 1.625 0.921875 2.484375q0.828125 0.859375 2.0625 0.859375q0.90625 0 1.546875 -0.46875q0.65625 -0.484375 1.046875 -1.546875zm-5.484375 -2.703125l5.5 0q-0.109375 -1.234375 -0.625 -1.859375q-0.796875 -0.96875 -2.078125 -0.96875q-1.140625 0 -1.9375 0.78125q-0.78125 0.765625 -0.859375 2.046875zm8.438232 2.9375l1.65625 -0.265625q0.140625 1.0 0.765625 1.53125q0.640625 0.515625 1.78125 0.515625q1.15625 0 1.703125 -0.46875q0.5625 -0.46875 0.5625 -1.09375q0 -0.5625 -0.484375 -0.890625q-0.34375 -0.21875 -1.703125 -0.5625q-1.84375 -0.46875 -2.5625 -0.796875q-0.703125 -0.34375 -1.078125 -0.9375q-0.359375 -0.609375 -0.359375 -1.328125q0 -0.65625 0.296875 -1.21875q0.3125 -0.5625 0.828125 -0.9375q0.390625 -0.28125 1.0625 -0.484375q0.671875 -0.203125 1.4375 -0.203125q1.171875 0 2.046875 0.34375q0.875 0.328125 1.28125 0.90625q0.421875 0.5625 0.578125 1.515625l-1.625 0.21875q-0.109375 -0.75 -0.65625 -1.171875q-0.53125 -0.4375 -1.5 -0.4375q-1.15625 0 -1.640625 0.390625q-0.484375 0.375 -0.484375 0.875q0 0.328125 0.203125 0.59375q0.203125 0.265625 0.640625 0.4375q0.25 0.09375 1.46875 0.4375q1.765625 0.46875 2.46875 0.765625q0.703125 0.296875 1.09375 0.875q0.40625 0.578125 0.40625 1.4375q0 0.828125 -0.484375 1.578125q-0.484375 0.734375 -1.40625 1.140625q-0.921875 0.390625 -2.078125 0.390625q-1.921875 0 -2.9375 -0.796875q-1.0 -0.796875 -1.28125 -2.359375zm9.328125 0l1.65625 -0.265625q0.140625 1.0 0.765625 1.53125q0.640625 0.515625 1.78125 0.515625q1.15625 0 1.703125 -0.46875q0.5625 -0.46875 0.5625 -1.09375q0 -0.5625 -0.484375 -0.890625q-0.34375 -0.21875 -1.703125 -0.5625q-1.84375 -0.46875 -2.5625 -0.796875q-0.703125 -0.34375 -1.078125 -0.9375q-0.359375 -0.609375 -0.359375 -1.328125q0 -0.65625 0.296875 -1.21875q0.3125 -0.5625 0.828125 -0.9375q0.390625 -0.28125 1.0625 -0.484375q0.671875 -0.203125 1.4375 -0.203125q1.171875 0 2.046875 0.34375q0.875 0.328125 1.28125 0.90625q0.421875 0.5625 0.578125 1.515625l-1.625 0.21875q-0.109375 -0.75 -0.65625 -1.171875q-0.53125 -0.4375 -1.5 -0.4375q-1.15625 0 -1.640625 0.390625q-0.484375 0.375 -0.484375 0.875q0 0.328125 0.203125 0.59375q0.203125 0.265625 0.640625 0.4375q0.25 0.09375 1.46875 0.4375q1.765625 0.46875 2.46875 0.765625q0.703125 0.296875 1.09375 0.875q0.40625 0.578125 0.40625 1.4375q0 0.828125 -0.484375 1.578125q-0.484375 0.734375 -1.40625 1.140625q-0.921875 0.390625 -2.078125 0.390625q-1.921875 0 -2.9375 -0.796875q-1.0 -0.796875 -1.28125 -2.359375zm9.375 -1.984375q0 -2.734375 1.53125 -4.0625q1.265625 -1.09375 3.09375 -1.09375q2.03125 0 3.3125 1.34375q1.296875 1.328125 1.296875 3.671875q0 1.90625 -0.578125 3.0q-0.5625 1.078125 -1.65625 1.6875q-1.078125 0.59375 -2.375 0.59375q-2.0625 0 -3.34375 -1.328125q-1.28125 -1.328125 -1.28125 -3.8125zm1.71875 0q0 1.890625 0.828125 2.828125q0.828125 0.9375 2.078125 0.9375q1.25 0 2.0625 -0.9375q0.828125 -0.953125 0.828125 -2.890625q0 -1.828125 -0.828125 -2.765625q-0.828125 -0.9375 -2.0625 -0.9375q-1.25 0 -2.078125 0.9375q-0.828125 0.9375 -0.828125 2.828125zm15.719452 3.703125q-0.9375 0.796875 -1.796875 1.125q-0.859375 0.3125 -1.84375 0.3125q-1.609375 0 -2.484375 -0.78125q-0.875 -0.796875 -0.875 -2.03125q0 -0.734375 0.328125 -1.328125q0.328125 -0.59375 0.859375 -0.953125q0.53125 -0.359375 1.203125 -0.546875q0.5 -0.140625 1.484375 -0.25q2.03125 -0.25 2.984375 -0.578125q0 -0.34375 0 -0.4375q0 -1.015625 -0.46875 -1.4375q-0.640625 -0.5625 -1.90625 -0.5625q-1.171875 0 -1.734375 0.40625q-0.5625 0.40625 -0.828125 1.46875l-1.640625 -0.234375q0.234375 -1.046875 0.734375 -1.6875q0.515625 -0.640625 1.46875 -0.984375q0.96875 -0.359375 2.25 -0.359375q1.265625 0 2.046875 0.296875q0.78125 0.296875 1.15625 0.75q0.375 0.453125 0.515625 1.140625q0.09375 0.421875 0.09375 1.53125l0 2.234375q0 2.328125 0.09375 2.953125q0.109375 0.609375 0.4375 1.171875l-1.75 0q-0.265625 -0.515625 -0.328125 -1.21875zm-0.140625 -3.71875q-0.90625 0.359375 -2.734375 0.625q-1.03125 0.140625 -1.453125 0.328125q-0.421875 0.1875 -0.65625 0.546875q-0.234375 0.359375 -0.234375 0.796875q0 0.671875 0.5 1.125q0.515625 0.4375 1.484375 0.4375q0.96875 0 1.71875 -0.421875q0.75 -0.4375 1.109375 -1.15625q0.265625 -0.578125 0.265625 -1.671875l0 -0.609375zm3.4069824 2.0l1.6562195 -0.265625q0.140625 1.0 0.765625 1.53125q0.640625 0.515625 1.78125 0.515625q1.15625 0 1.703125 -0.46875q0.5625 -0.46875 0.5625 -1.09375q0 -0.5625 -0.484375 -0.890625q-0.34375 -0.21875 -1.703125 -0.5625q-1.84375 -0.46875 -2.5625 -0.796875q-0.703125 -0.34375 -1.078125 -0.9375q-0.359375 -0.609375 -0.359375 -1.328125q0 -0.65625 0.296875 -1.21875q0.3125 -0.5625 0.828125 -0.9375q0.390625 -0.28125 1.0625 -0.484375q0.671875 -0.203125 1.4375 -0.203125q1.171875 0 2.046875 0.34375q0.875 0.328125 1.28125 0.90625q0.421875 0.5625 0.578125 1.515625l-1.625 0.21875q-0.109375 -0.75 -0.65625 -1.171875q-0.53125 -0.4375 -1.5 -0.4375q-1.15625 0 -1.640625 0.390625q-0.484375 0.375 -0.484375 0.875q0 0.328125 0.203125 0.59375q0.203125 0.265625 0.640625 0.4375q0.25 0.09375 1.46875 0.4375q1.765625 0.46875 2.46875 0.765625q0.703125 0.296875 1.09375 0.875q0.40625 0.578125 0.40625 1.4375q0 0.828125 -0.484375 1.578125q-0.484375 0.734375 -1.40625 1.140625q-0.921875 0.390625 -2.078125 0.390625q-1.921875 0 -2.9375 -0.796875q-1.0 -0.796875 -1.2812195 -2.359375z" fill-rule="nonzero"></path><path fill="#000000" fill-opacity="0.0" d="m107.0 98.750656l176.0 0l0 48.97638l-176.0 0z" fill-rule="nonzero"></path><path fill="#274e13" d="m142.65402 120.49878l0 -1.890625q0.984375 -1.125 2.578125 -1.125q0.546875 0 1.15625 0.171875q0.625 0.15625 1.75 0.640625q0.640625 0.265625 0.953125 0.359375q0.328125 0.078125 0.65625 0.078125q0.59375 0 1.234375 -0.359375q0.65625 -0.359375 1.15625 -0.90625l0 1.953125q-0.59375 0.5625 -1.203125 0.8125q-0.609375 0.25 -1.359375 0.25q-0.5625 0 -1.078125 -0.125q-0.5 -0.140625 -1.59375 -0.625q-1.09375 -0.484375 -1.828125 -0.484375q-0.59375 0 -1.125 0.25q-0.515625 0.25 -1.296875 1.0zm10.8637085 1.609375l1.765625 -0.15625q0.1875 1.28125 0.890625 1.9375q0.71875 0.640625 1.71875 0.640625q1.203125 0 2.03125 -0.90625q0.84375 -0.90625 0.84375 -2.421875q0 -1.421875 -0.8125 -2.25q-0.796875 -0.828125 -2.09375 -0.828125q-0.796875 0 -1.453125 0.375q-0.640625 0.359375 -1.015625 0.953125l-1.578125 -0.203125l1.328125 -7.0l6.765625 0l0 1.609375l-5.4375 0l-0.734375 3.640625q1.234375 -0.84375 2.578125 -0.84375q1.78125 0 3.0 1.234375q1.234375 1.234375 1.234375 3.171875q0 1.84375 -1.078125 3.1875q-1.3125 1.65625 -3.578125 1.65625q-1.859375 0 -3.03125 -1.03125q-1.171875 -1.046875 -1.34375 -2.765625zm10.375732 -3.140625q0 -2.421875 0.5 -3.890625q0.5 -1.46875 1.46875 -2.265625q0.984375 -0.796875 2.46875 -0.796875q1.09375 0 1.921875 0.4375q0.828125 0.4375 1.359375 1.28125q0.546875 0.828125 0.84375 2.015625q0.3125 1.1875 0.3125 3.21875q0 2.390625 -0.5 3.859375q-0.484375 1.46875 -1.46875 2.28125q-0.96875 0.796875 -2.46875 0.796875q-1.96875 0 -3.078125 -1.40625q-1.359375 -1.703125 -1.359375 -5.53125zm1.71875 0q0 3.34375 0.78125 4.453125q0.796875 1.109375 1.9375 1.109375q1.15625 0 1.9375 -1.109375q0.78125 -1.125 0.78125 -4.453125q0 -3.359375 -0.78125 -4.46875q-0.78125 -1.109375 -1.953125 -1.109375q-1.15625 0 -1.828125 0.984375q-0.875 1.234375 -0.875 4.59375zm14.309021 10.484375l0 -13.640625l1.53125 0l0 1.28125q0.53125 -0.75 1.203125 -1.125q0.6875 -0.375 1.640625 -0.375q1.265625 0 2.234375 0.65625q0.96875 0.640625 1.453125 1.828125q0.5 1.1875 0.5 2.59375q0 1.515625 -0.546875 2.734375q-0.546875 1.203125 -1.578125 1.84375q-1.03125 0.640625 -2.171875 0.640625q-0.84375 0 -1.515625 -0.34375q-0.65625 -0.359375 -1.078125 -0.890625l0 4.796875l-1.671875 0zm1.515625 -8.65625q0 1.90625 0.765625 2.8125q0.78125 0.90625 1.875 0.90625q1.109375 0 1.890625 -0.9375q0.796875 -0.9375 0.796875 -2.921875q0 -1.875 -0.78125 -2.8125q-0.765625 -0.9375 -1.84375 -0.9375q-1.0625 0 -1.890625 1.0q-0.8125 1.0 -0.8125 2.890625zm15.610077 1.703125l1.71875 0.21875q-0.40625 1.5 -1.515625 2.34375q-1.09375 0.828125 -2.8125 0.828125q-2.15625 0 -3.421875 -1.328125q-1.265625 -1.328125 -1.265625 -3.734375q0 -2.484375 1.265625 -3.859375q1.28125 -1.375 3.328125 -1.375q1.984375 0 3.234375 1.34375q1.25 1.34375 1.25 3.796875q0 0.140625 -0.015625 0.4375l-7.34375 0q0.09375 1.625 0.921875 2.484375q0.828125 0.859375 2.0625 0.859375q0.90625 0 1.546875 -0.46875q0.65625 -0.484375 1.046875 -1.546875zm-5.484375 -2.703125l5.5 0q-0.109375 -1.234375 -0.625 -1.859375q-0.796875 -0.96875 -2.078125 -0.96875q-1.140625 0 -1.9375 0.78125q-0.78125 0.765625 -0.859375 2.046875zm8.438232 2.9375l1.65625 -0.265625q0.140625 1.0 0.765625 1.53125q0.640625 0.515625 1.78125 0.515625q1.15625 0 1.703125 -0.46875q0.5625 -0.46875 0.5625 -1.09375q0 -0.5625 -0.484375 -0.890625q-0.34375 -0.21875 -1.703125 -0.5625q-1.84375 -0.46875 -2.5625 -0.796875q-0.703125 -0.34375 -1.078125 -0.9375q-0.359375 -0.609375 -0.359375 -1.328125q0 -0.65625 0.296875 -1.21875q0.3125 -0.5625 0.828125 -0.9375q0.390625 -0.28125 1.0625 -0.484375q0.671875 -0.203125 1.4375 -0.203125q1.171875 0 2.046875 0.34375q0.875 0.328125 1.28125 0.90625q0.421875 0.5625 0.578125 1.515625l-1.625 0.21875q-0.109375 -0.75 -0.65625 -1.171875q-0.53125 -0.4375 -1.5 -0.4375q-1.15625 0 -1.640625 0.390625q-0.484375 0.375 -0.484375 0.875q0 0.328125 0.203125 0.59375q0.203125 0.265625 0.640625 0.4375q0.25 0.09375 1.46875 0.4375q1.765625 0.46875 2.46875 0.765625q0.703125 0.296875 1.09375 0.875q0.40625 0.578125 0.40625 1.4375q0 0.828125 -0.484375 1.578125q-0.484375 0.734375 -1.40625 1.140625q-0.921875 0.390625 -2.078125 0.390625q-1.921875 0 -2.9375 -0.796875q-1.0 -0.796875 -1.28125 -2.359375zm9.328125 0l1.65625 -0.265625q0.140625 1.0 0.765625 1.53125q0.640625 0.515625 1.78125 0.515625q1.15625 0 1.703125 -0.46875q0.5625 -0.46875 0.5625 -1.09375q0 -0.5625 -0.484375 -0.890625q-0.34375 -0.21875 -1.703125 -0.5625q-1.84375 -0.46875 -2.5625 -0.796875q-0.703125 -0.34375 -1.078125 -0.9375q-0.359375 -0.609375 -0.359375 -1.328125q0 -0.65625 0.296875 -1.21875q0.3125 -0.5625 0.828125 -0.9375q0.390625 -0.28125 1.0625 -0.484375q0.671875 -0.203125 1.4375 -0.203125q1.171875 0 2.046875 0.34375q0.875 0.328125 1.28125 0.90625q0.421875 0.5625 0.578125 1.515625l-1.625 0.21875q-0.109375 -0.75 -0.65625 -1.171875q-0.53125 -0.4375 -1.5 -0.4375q-1.15625 0 -1.640625 0.390625q-0.484375 0.375 -0.484375 0.875q0 0.328125 0.203125 0.59375q0.203125 0.265625 0.640625 0.4375q0.25 0.09375 1.46875 0.4375q1.765625 0.46875 2.46875 0.765625q0.703125 0.296875 1.09375 0.875q0.40625 0.578125 0.40625 1.4375q0 0.828125 -0.484375 1.578125q-0.484375 0.734375 -1.40625 1.140625q-0.921875 0.390625 -2.078125 0.390625q-1.921875 0 -2.9375 -0.796875q-1.0 -0.796875 -1.28125 -2.359375zm9.375 -1.984375q0 -2.734375 1.53125 -4.0625q1.265625 -1.09375 3.09375 -1.09375q2.03125 0 3.3125 1.34375q1.296875 1.328125 1.296875 3.671875q0 1.90625 -0.578125 3.0q-0.5625 1.078125 -1.65625 1.6875q-1.078125 0.59375 -2.375 0.59375q-2.0625 0 -3.34375 -1.328125q-1.28125 -1.328125 -1.28125 -3.8125zm1.71875 0q0 1.890625 0.828125 2.828125q0.828125 0.9375 2.078125 0.9375q1.25 0 2.0625 -0.9375q0.828125 -0.953125 0.828125 -2.890625q0 -1.828125 -0.828125 -2.765625q-0.828125 -0.9375 -2.0625 -0.9375q-1.25 0 -2.078125 0.9375q-0.828125 0.9375 -0.828125 2.828125zm15.719452 3.703125q-0.9375 0.796875 -1.796875 1.125q-0.859375 0.3125 -1.84375 0.3125q-1.609375 0 -2.484375 -0.78125q-0.875 -0.796875 -0.875 -2.03125q0 -0.734375 0.328125 -1.328125q0.328125 -0.59375 0.859375 -0.953125q0.53125 -0.359375 1.203125 -0.546875q0.5 -0.140625 1.484375 -0.25q2.03125 -0.25 2.984375 -0.578125q0 -0.34375 0 -0.4375q0 -1.015625 -0.46875 -1.4375q-0.640625 -0.5625 -1.90625 -0.5625q-1.171875 0 -1.734375 0.40625q-0.5625 0.40625 -0.828125 1.46875l-1.640625 -0.234375q0.234375 -1.046875 0.734375 -1.6875q0.515625 -0.640625 1.46875 -0.984375q0.96875 -0.359375 2.25 -0.359375q1.265625 0 2.046875 0.296875q0.78125 0.296875 1.15625 0.75q0.375 0.453125 0.515625 1.140625q0.09375 0.421875 0.09375 1.53125l0 2.234375q0 2.328125 0.09375 2.953125q0.109375 0.609375 0.4375 1.171875l-1.75 0q-0.265625 -0.515625 -0.328125 -1.21875zm-0.140625 -3.71875q-0.90625 0.359375 -2.734375 0.625q-1.03125 0.140625 -1.453125 0.328125q-0.421875 0.1875 -0.65625 0.546875q-0.234375 0.359375 -0.234375 0.796875q0 0.671875 0.5 1.125q0.515625 0.4375 1.484375 0.4375q0.96875 0 1.71875 -0.421875q0.75 -0.4375 1.109375 -1.15625q0.265625 -0.578125 0.265625 -1.671875l0 -0.609375zm3.4069824 2.0l1.65625 -0.265625q0.140625 1.0 0.765625 1.53125q0.640625 0.515625 1.78125 0.515625q1.15625 0 1.703125 -0.46875q0.5625 -0.46875 0.5625 -1.09375q0 -0.5625 -0.484375 -0.890625q-0.34375 -0.21875 -1.703125 -0.5625q-1.84375 -0.46875 -2.5625 -0.796875q-0.703125 -0.34375 -1.078125 -0.9375q-0.359375 -0.609375 -0.359375 -1.328125q0 -0.65625 0.296875 -1.21875q0.3125 -0.5625 0.828125 -0.9375q0.390625 -0.28125 1.0625 -0.484375q0.671875 -0.203125 1.4375 -0.203125q1.171875 0 2.046875 0.34375q0.875 0.328125 1.28125 0.90625q0.421875 0.5625 0.578125 1.515625l-1.625 0.21875q-0.109375 -0.75 -0.65625 -1.171875q-0.53125 -0.4375 -1.5 -0.4375q-1.15625 0 -1.640625 0.390625q-0.484375 0.375 -0.484375 0.875q0 0.328125 0.203125 0.59375q0.203125 0.265625 0.640625 0.4375q0.25 0.09375 1.46875 0.4375q1.765625 0.46875 2.46875 0.765625q0.703125 0.296875 1.09375 0.875q0.40625 0.578125 0.40625 1.4375q0 0.828125 -0.484375 1.578125q-0.484375 0.734375 -1.40625 1.140625q-0.921875 0.390625 -2.078125 0.390625q-1.921875 0 -2.9375 -0.796875q-1.0 -0.796875 -1.28125 -2.359375z" fill-rule="nonzero"></path><path fill="#000000" fill-opacity="0.0" d="m338.0 102.727036l64.0 0l0 34.992126l-64.0 0z" fill-rule="nonzero"></path><path fill="#000000" d="m347.8125 124.47516l0 -1.890625q0.984375 -1.125 2.578125 -1.125q0.546875 0 1.15625 0.171875q0.625 0.15625 1.75 0.640625q0.640625 0.265625 0.953125 0.359375q0.328125 0.078125 0.65625 0.078125q0.59375 0 1.234375 -0.359375q0.65625 -0.359375 1.15625 -0.90625l0 1.953125q-0.59375 0.5625 -1.203125 0.8125q-0.609375 0.25 -1.359375 0.25q-0.5625 0 -1.078125 -0.125q-0.5 -0.140625 -1.59375 -0.625q-1.09375 -0.484375 -1.828125 -0.484375q-0.59375 0 -1.125 0.25q-0.515625 0.25 -1.296875 1.0zm19.644958 3.5625l0 1.609375l-8.984375 0q-0.015625 -0.609375 0.1875 -1.15625q0.34375 -0.921875 1.09375 -1.8125q0.765625 -0.890625 2.1875 -2.0625q2.21875 -1.8125 3.0 -2.875q0.78125 -1.0625 0.78125 -2.015625q0 -0.984375 -0.71875 -1.671875q-0.703125 -0.6875 -1.84375 -0.6875q-1.203125 0 -1.9375 0.734375q-0.71875 0.71875 -0.71875 2.0l-1.71875 -0.171875q0.171875 -1.921875 1.328125 -2.921875q1.15625 -1.015625 3.09375 -1.015625q1.953125 0 3.09375 1.09375q1.140625 1.078125 1.140625 2.6875q0 0.8125 -0.34375 1.609375q-0.328125 0.78125 -1.109375 1.65625q-0.765625 0.859375 -2.5625 2.390625q-1.5 1.265625 -1.9375 1.71875q-0.421875 0.4375 -0.703125 0.890625l6.671875 0zm1.5944824 -5.09375q0 -2.421875 0.5 -3.890625q0.5 -1.46875 1.46875 -2.265625q0.984375 -0.796875 2.46875 -0.796875q1.09375 0 1.921875 0.4375q0.828125 0.4375 1.359375 1.28125q0.546875 0.828125 0.84375 2.015625q0.3125 1.1875 0.3125 3.21875q0 2.390625 -0.5 3.859375q-0.484375 1.46875 -1.46875 2.28125q-0.96875 0.796875 -2.46875 0.796875q-1.96875 0 -3.078125 -1.40625q-1.359375 -1.703125 -1.359375 -5.53125zm1.71875 0q0 3.34375 0.78125 4.453125q0.796875 1.109375 1.9375 1.109375q1.15625 0 1.9375 -1.109375q0.78125 -1.125 0.78125 -4.453125q0 -3.359375 -0.78125 -4.46875q-0.78125 -1.109375 -1.953125 -1.109375q-1.15625 0 -1.828125 0.984375q-0.875 1.234375 -0.875 4.59375z" fill-rule="nonzero"></path><path fill="#000000" fill-opacity="0.0" d="m107.0 236.99475l535.0236 0l0 110.01575l-535.0236 0z" fill-rule="nonzero"></path><path fill="#000000" d="m256.4294 250.321l1.8125 0l-1.734375 8.35936q-0.21875 1.03125 -0.21875 1.53125q0 1.09375 0.859375 1.765625q0.875 0.671875 2.171875 0.671875q1.046875 0 1.9375 -0.484375q0.890625 -0.484375 1.40625 -1.40625q0.53125 -0.921875 0.953125 -2.953125l1.5625 -7.4843597l1.8125 0l-1.65625 7.9687347q-0.421875 2.046875 -1.125 3.234375q-0.6875 1.1875 -1.921875 1.90625q-1.234375 0.71875 -2.875 0.71875q-1.53125 0 -2.671875 -0.5q-1.125 -0.515625 -1.6875 -1.40625q-0.546875 -0.90625 -0.546875 -2.046875q0 -0.71875 0.375 -2.453125l1.546875 -7.4218597zm10.488556 10.218735l1.6875 -0.09375q0 0.71875 0.21875 1.234375q0.21875 0.515625 0.8125 0.84375q0.609375 0.3125 1.40625 0.3125q1.109375 0 1.671875 -0.4375q0.5625 -0.453125 0.5625 -1.046875q0 -0.4375 -0.34375 -0.828125q-0.34375 -0.390625 -1.671875 -0.953125q-1.328125 -0.578125 -1.703125 -0.8125q-0.625 -0.375 -0.9375 -0.890625q-0.3125 -0.515625 -0.3125 -1.1875q0 -1.1718597 0.921875 -1.9999847q0.9375 -0.84375 2.609375 -0.84375q1.84375 0 2.8125 0.859375q0.96875 0.859375 1.015625 2.2656097l-1.640625 0.109375q-0.046875 -0.890625 -0.640625 -1.4062347q-0.59375 -0.53125 -1.671875 -0.53125q-0.875 0 -1.359375 0.40625q-0.484375 0.390625 -0.484375 0.85935974q0 0.46875 0.421875 0.8125q0.28125 0.25 1.4375 0.75q1.9375 0.828125 2.4375 1.3125q0.796875 0.765625 0.796875 1.875q0 0.734375 -0.453125 1.4375q-0.453125 0.703125 -1.375 1.125q-0.921875 0.421875 -2.171875 0.421875q-1.703125 0 -2.90625 -0.84375q-1.203125 -0.84375 -1.140625 -2.75zm15.90625 1.59375q-1.78125 2.0 -3.625 2.0q-1.140625 0 -1.84375 -0.640625q-0.703125 -0.65625 -0.703125 -1.609375q0 -0.625 0.3125 -2.140625l1.1875 -5.6874847l1.6875 0l-1.328125 6.3124847q-0.15625 0.78125 -0.15625 1.21875q0 0.5625 0.328125 0.875q0.34375 0.296875 1.0 0.296875q0.703125 0 1.375 -0.34375q0.671875 -0.34375 1.15625 -0.921875q0.5 -0.578125 0.796875 -1.375q0.203125 -0.515625 0.484375 -1.796875l0.890625 -4.2656097l1.671875 0l-2.0625 9.85936l-1.546875 0l0.375 -1.78125zm10.297607 0.5625q-0.875 0.75 -1.6875 1.09375q-0.8125 0.34375 -1.71875 0.34375q-1.375 0 -2.21875 -0.796875q-0.828125 -0.796875 -0.828125 -2.0625q0 -0.8125 0.375 -1.453125q0.390625 -0.640625 1.0 -1.015625q0.625 -0.390625 1.53125 -0.5625q0.5625 -0.109375 2.140625 -0.171875q1.578125 -0.0625 2.265625 -0.328125q0.203125 -0.6875 0.203125 -1.140625q0 -0.59375 -0.4375 -0.92185974q-0.578125 -0.46875 -1.703125 -0.46875q-1.046875 0 -1.734375 0.46875q-0.671875 0.46873474 -0.96875 1.3281097l-1.703125 -0.140625q0.515625 -1.4687347 1.640625 -2.2499847q1.140625 -0.78125 2.859375 -0.78125q1.828125 0 2.890625 0.875q0.8125 0.65625 0.8125 1.6874847q0 0.796875 -0.234375 1.828125l-0.546875 2.453125q-0.25 1.171875 -0.25 1.890625q0 0.46875 0.203125 1.34375l-1.703125 0q-0.140625 -0.484375 -0.1875 -1.21875zm0.609375 -3.765625q-0.34375 0.125 -0.75 0.203125q-0.40625 0.078125 -1.34375 0.15625q-1.46875 0.140625 -2.078125 0.34375q-0.59375 0.1875 -0.90625 0.625q-0.3125 0.4375 -0.3125 0.96875q0 0.703125 0.484375 1.15625q0.5 0.453125 1.390625 0.453125q0.84375 0 1.609375 -0.4375q0.765625 -0.4375 1.203125 -1.21875q0.453125 -0.796875 0.703125 -2.25zm-2.6875 -6.0624847l1.75 -2.546875l2.109375 0l-2.453125 2.546875l-1.40625 0zm5.7976074 11.04686l2.0625 -9.85936l1.484375 0l-0.421875 2.0156097q0.765625 -1.1406097 1.484375 -1.6874847q0.734375 -0.546875 1.5 -0.546875q0.5 0 1.234375 0.359375l-0.6875 1.5625q-0.4375 -0.3125 -0.953125 -0.3125q-0.875 0 -1.8125 0.98435974q-0.921875 0.984375 -1.453125 3.53125l-0.828125 3.953125l-1.609375 0zm8.6032715 -11.70311l0.40625 -1.890625l1.65625 0l-0.390625 1.890625l-1.671875 0zm-2.453125 11.70311l2.0625 -9.85936l1.6875 0l-2.0625 9.85936l-1.6875 0zm4.5042114 -3.734375q0 -2.890625 1.703125 -4.7812347q1.40625 -1.5625 3.671875 -1.5625q1.78125 0 2.875 1.125q1.09375 1.1093597 1.09375 2.9999847q0 1.6875 -0.6875 3.15625q-0.6875 1.453125 -1.953125 2.234375q-1.265625 0.78125 -2.671875 0.78125q-1.15625 0 -2.09375 -0.484375q-0.9375 -0.5 -1.4375 -1.390625q-0.5 -0.90625 -0.5 -2.078125zm1.6875 -0.171875q0 1.390625 0.65625 2.109375q0.671875 0.71875 1.703125 0.71875q0.546875 0 1.0625 -0.21875q0.53125 -0.21875 0.984375 -0.65625q0.46875 -0.453125 0.78125 -1.015625q0.328125 -0.578125 0.515625 -1.234375q0.28125 -0.921875 0.28125 -1.765625q0 -1.328125 -0.671875 -2.0624847q-0.671875 -0.75 -1.6875 -0.75q-0.78125 0 -1.4375 0.375q-0.65625 0.375 -1.1875 1.1093597q-0.515625 0.71875 -0.765625 1.6875q-0.234375 0.953125 -0.234375 1.703125zm8.547607 0.53125l1.6875 -0.09375q0 0.71875 0.21875 1.234375q0.21875 0.515625 0.8125 0.84375q0.609375 0.3125 1.40625 0.3125q1.109375 0 1.671875 -0.4375q0.5625 -0.453125 0.5625 -1.046875q0 -0.4375 -0.34375 -0.828125q-0.34375 -0.390625 -1.671875 -0.953125q-1.328125 -0.578125 -1.703125 -0.8125q-0.625 -0.375 -0.9375 -0.890625q-0.3125 -0.515625 -0.3125 -1.1875q0 -1.1718597 0.921875 -1.9999847q0.9375 -0.84375 2.609375 -0.84375q1.84375 0 2.8125 0.859375q0.96875 0.859375 1.015625 2.2656097l-1.640625 0.109375q-0.046875 -0.890625 -0.640625 -1.4062347q-0.59375 -0.53125 -1.671875 -0.53125q-0.875 0 -1.359375 0.40625q-0.484375 0.390625 -0.484375 0.85935974q0 0.46875 0.421875 0.8125q0.28125 0.25 1.4375 0.75q1.9375 0.828125 2.4375 1.3125q0.796875 0.765625 0.796875 1.875q0 0.734375 -0.453125 1.4375q-0.453125 0.703125 -1.375 1.125q-0.921875 0.421875 -2.171875 0.421875q-1.703125 0 -2.90625 -0.84375q-1.203125 -0.84375 -1.140625 -2.75z" fill-rule="nonzero"></path><path fill="#000000" d="m339.8786 263.91473l-1.90625 0l0 -5.5625q0 -2.34375 0.0625 -2.9999847q0.109375 -1.15625 0.4375 -1.921875q0.328125 -0.78125 1.03125 -1.515625q0.71875 -0.734375 1.75 -1.1875q1.046875 -0.46875 2.21875 -0.46875q1.125 0 2.140625 0.4375q1.015625 0.4375 1.765625 1.1875q0.765625 0.734375 1.09375 1.578125q0.34375 0.828125 0.453125 2.109375q0.046875 0.49998474 0.046875 2.7812347l0 5.5625l-1.90625 0l0 -5.625q0 -1.953125 -0.046875 -2.4999847q-0.09375 -0.953125 -0.328125 -1.59375q-0.171875 -0.484375 -0.625 -0.953125q-0.453125 -0.484375 -1.15625 -0.796875q-0.703125 -0.3125 -1.453125 -0.3125q-0.734375 0 -1.46875 0.34375q-0.734375 0.328125 -1.203125 0.859375q-0.453125 0.53125 -0.640625 1.1875q-0.171875 0.640625 -0.234375 1.5156097q-0.03125 0.46875 -0.03125 2.25l0 5.625z" fill-rule="nonzero"></path><path fill="#000000" d="m360.1088 263.91473l7.703125 -13.593735l2.140625 0l2.25 13.593735l-1.765625 0l-0.65625 -3.921875l-5.5 0l-2.1875 3.921875l-1.984375 0zm4.953125 -5.3125l4.5 0l-0.53125 -3.4218597q-0.3125 -2.03125 -0.375 -3.375q-0.46875 1.15625 -1.359375 2.765625l-2.234375 4.0312347zm8.646698 1.9375l1.6875 -0.09375q0 0.71875 0.21875 1.234375q0.21875 0.515625 0.8125 0.84375q0.609375 0.3125 1.40625 0.3125q1.109375 0 1.671875 -0.4375q0.5625 -0.453125 0.5625 -1.046875q0 -0.4375 -0.34375 -0.828125q-0.34375 -0.390625 -1.671875 -0.953125q-1.328125 -0.578125 -1.703125 -0.8125q-0.625 -0.375 -0.9375 -0.890625q-0.3125 -0.515625 -0.3125 -1.1875q0 -1.1718597 0.921875 -1.9999847q0.9375 -0.84375 2.609375 -0.84375q1.84375 0 2.8125 0.859375q0.96875 0.859375 1.015625 2.2656097l-1.640625 0.109375q-0.046875 -0.890625 -0.640625 -1.4062347q-0.59375 -0.53125 -1.671875 -0.53125q-0.875 0 -1.359375 0.40625q-0.484375 0.390625 -0.484375 0.85935974q0 0.46875 0.421875 0.8125q0.28125 0.25 1.4375 0.75q1.9375 0.828125 2.4375 1.3125q0.796875 0.765625 0.796875 1.875q0 0.734375 -0.453125 1.4375q-0.453125 0.703125 -1.375 1.125q-0.921875 0.421875 -2.171875 0.421875q-1.703125 0 -2.90625 -0.84375q-1.203125 -0.84375 -1.140625 -2.75zm9.328125 0l1.6875 -0.09375q0 0.71875 0.21875 1.234375q0.21875 0.515625 0.8125 0.84375q0.609375 0.3125 1.40625 0.3125q1.109375 0 1.671875 -0.4375q0.5625 -0.453125 0.5625 -1.046875q0 -0.4375 -0.34375 -0.828125q-0.34375 -0.390625 -1.671875 -0.953125q-1.328125 -0.578125 -1.703125 -0.8125q-0.625 -0.375 -0.9375 -0.890625q-0.3125 -0.515625 -0.3125 -1.1875q0 -1.1718597 0.921875 -1.9999847q0.9375 -0.84375 2.609375 -0.84375q1.84375 0 2.8125 0.859375q0.96875 0.859375 1.015625 2.2656097l-1.640625 0.109375q-0.046875 -0.890625 -0.640625 -1.4062347q-0.59375 -0.53125 -1.671875 -0.53125q-0.875 0 -1.359375 0.40625q-0.484375 0.390625 -0.484375 0.85935974q0 0.46875 0.421875 0.8125q0.28125 0.25 1.4375 0.75q1.9375 0.828125 2.4375 1.3125q0.796875 0.765625 0.796875 1.875q0 0.734375 -0.453125 1.4375q-0.453125 0.703125 -1.375 1.125q-0.921875 0.421875 -2.171875 0.421875q-1.703125 0 -2.90625 -0.84375q-1.203125 -0.84375 -1.140625 -2.75zm9.46875 -0.359375q0 -2.890625 1.703125 -4.7812347q1.40625 -1.5625 3.671875 -1.5625q1.78125 0 2.875 1.125q1.09375 1.1093597 1.09375 2.9999847q0 1.6875 -0.6875 3.15625q-0.6875 1.453125 -1.953125 2.234375q-1.265625 0.78125 -2.671875 0.78125q-1.15625 0 -2.09375 -0.484375q-0.9375 -0.5 -1.4375 -1.390625q-0.5 -0.90625 -0.5 -2.078125zm1.6875 -0.171875q0 1.390625 0.65625 2.109375q0.671875 0.71875 1.703125 0.71875q0.546875 0 1.0625 -0.21875q0.53125 -0.21875 0.984375 -0.65625q0.46875 -0.453125 0.78125 -1.015625q0.328125 -0.578125 0.515625 -1.234375q0.28125 -0.921875 0.28125 -1.765625q0 -1.328125 -0.671875 -2.0624847q-0.671875 -0.75 -1.6875 -0.75q-0.78125 0 -1.4375 0.375q-0.65625 0.375 -1.1875 1.1093597q-0.515625 0.71875 -0.765625 1.6875q-0.234375 0.953125 -0.234375 1.703125zm15.203857 0.3125l1.671875 0.171875q-0.625 1.859375 -1.796875 2.75q-1.15625 0.890625 -2.640625 0.890625q-1.609375 0 -2.609375 -1.03125q-1.0 -1.046875 -1.0 -2.90625q0 -1.609375 0.640625 -3.171875q0.640625 -1.5624847 1.828125 -2.3749847q1.203125 -0.8125 2.734375 -0.8125q1.578125 0 2.5 0.90625q0.9375 0.890625 0.9375 2.3593597l-1.65625 0.109375q0 -0.9375 -0.53125 -1.4531097q-0.53125 -0.53125 -1.40625 -0.53125q-1.015625 0 -1.765625 0.640625q-0.734375 0.64060974 -1.15625 1.9374847q-0.421875 1.296875 -0.421875 2.515625q0 1.25 0.546875 1.890625q0.5625 0.625 1.375 0.625q0.828125 0 1.5625 -0.609375q0.75 -0.625 1.1875 -1.90625zm4.90625 -8.10936l0.40625 -1.890625l1.65625 0l-0.390625 1.890625l-1.671875 0zm-2.453125 11.70311l2.0625 -9.85936l1.6875 0l-2.0625 9.85936l-1.6875 0zm10.863556 -1.21875q-0.875 0.75 -1.6875 1.09375q-0.8125 0.34375 -1.71875 0.34375q-1.375 0 -2.21875 -0.796875q-0.828125 -0.796875 -0.828125 -2.0625q0 -0.8125 0.375 -1.453125q0.390625 -0.640625 1.0 -1.015625q0.625 -0.390625 1.53125 -0.5625q0.5625 -0.109375 2.140625 -0.171875q1.578125 -0.0625 2.265625 -0.328125q0.203125 -0.6875 0.203125 -1.140625q0 -0.59375 -0.4375 -0.92185974q-0.578125 -0.46875 -1.703125 -0.46875q-1.046875 0 -1.734375 0.46875q-0.671875 0.46873474 -0.96875 1.3281097l-1.703125 -0.140625q0.515625 -1.4687347 1.640625 -2.2499847q1.140625 -0.78125 2.859375 -0.78125q1.828125 0 2.890625 0.875q0.8125 0.65625 0.8125 1.6874847q0 0.796875 -0.234375 1.828125l-0.546875 2.453125q-0.25 1.171875 -0.25 1.890625q0 0.46875 0.203125 1.34375l-1.703125 0q-0.140625 -0.484375 -0.1875 -1.21875zm0.609375 -3.765625q-0.34375 0.125 -0.75 0.203125q-0.40625 0.078125 -1.34375 0.15625q-1.46875 0.140625 -2.078125 0.34375q-0.59375 0.1875 -0.90625 0.625q-0.3125 0.4375 -0.3125 0.96875q0 0.703125 0.484375 1.15625q0.5 0.453125 1.390625 0.453125q0.84375 0 1.609375 -0.4375q0.765625 -0.4375 1.203125 -1.21875q0.453125 -0.796875 0.703125 -2.25zm9.766327 3.5625q-1.453125 1.640625 -3.015625 1.640625q-1.40625 0 -2.34375 -1.03125q-0.921875 -1.03125 -0.921875 -3.0q0 -1.796875 0.734375 -3.28125q0.75 -1.4999847 1.84375 -2.2343597q1.109375 -0.75 2.234375 -0.75q1.828125 0 2.765625 1.78125l1.109375 -5.296875l1.671875 0l-2.828125 13.593735l-1.546875 0l0.296875 -1.421875zm-4.609375 -2.703125q0 1.03125 0.203125 1.625q0.203125 0.59375 0.6875 0.984375q0.5 0.390625 1.1875 0.390625q1.140625 0 2.0625 -1.1875q1.25 -1.578125 1.25 -3.890625q0 -1.171875 -0.609375 -1.8281097q-0.609375 -0.65625 -1.546875 -0.65625q-0.59375 0 -1.09375 0.265625q-0.5 0.265625 -0.984375 0.92185974q-0.484375 0.640625 -0.828125 1.640625q-0.328125 0.984375 -0.328125 1.734375zm8.625732 0.390625q0 -2.890625 1.703125 -4.7812347q1.40625 -1.5625 3.671875 -1.5625q1.78125 0 2.875 1.125q1.09375 1.1093597 1.09375 2.9999847q0 1.6875 -0.6875 3.15625q-0.6875 1.453125 -1.953125 2.234375q-1.265625 0.78125 -2.671875 0.78125q-1.15625 0 -2.09375 -0.484375q-0.9375 -0.5 -1.4375 -1.390625q-0.5 -0.90625 -0.5 -2.078125zm1.6875 -0.171875q0 1.390625 0.65625 2.109375q0.671875 0.71875 1.703125 0.71875q0.546875 0 1.0625 -0.21875q0.53125 -0.21875 0.984375 -0.65625q0.46875 -0.453125 0.78125 -1.015625q0.328125 -0.578125 0.515625 -1.234375q0.28125 -0.921875 0.28125 -1.765625q0 -1.328125 -0.671875 -2.0624847q-0.671875 -0.75 -1.6875 -0.75q-0.78125 0 -1.4375 0.375q-0.65625 0.375 -1.1875 1.1093597q-0.515625 0.71875 -0.765625 1.6875q-0.234375 0.953125 -0.234375 1.703125zm8.547607 0.53125l1.6875 -0.09375q0 0.71875 0.21875 1.234375q0.21875 0.515625 0.8125 0.84375q0.609375 0.3125 1.40625 0.3125q1.109375 0 1.671875 -0.4375q0.5625 -0.453125 0.5625 -1.046875q0 -0.4375 -0.34375 -0.828125q-0.34375 -0.390625 -1.671875 -0.953125q-1.328125 -0.578125 -1.703125 -0.8125q-0.625 -0.375 -0.9375 -0.890625q-0.3125 -0.515625 -0.3125 -1.1875q0 -1.1718597 0.921875 -1.9999847q0.9375 -0.84375 2.609375 -0.84375q1.84375 0 2.8125 0.859375q0.96875 0.859375 1.015625 2.2656097l-1.640625 0.109375q-0.046875 -0.890625 -0.640625 -1.4062347q-0.59375 -0.53125 -1.671875 -0.53125q-0.875 0 -1.359375 0.40625q-0.484375 0.390625 -0.484375 0.85935974q0 0.46875 0.421875 0.8125q0.28125 0.25 1.4375 0.75q1.9375 0.828125 2.4375 1.3125q0.796875 0.765625 0.796875 1.875q0 0.734375 -0.453125 1.4375q-0.453125 0.703125 -1.375 1.125q-0.921875 0.421875 -2.171875 0.421875q-1.703125 0 -2.90625 -0.84375q-1.203125 -0.84375 -1.140625 -2.75z" fill-rule="nonzero"></path><path fill="#000000" d="m470.17603 258.05536l0.625 -1.71875l-4.09375 0l0 -2.3906097l4.984375 0l1.375 -3.6875l1.953125 0l-1.375 3.6875l2.578125 0l0 2.3906097l-3.46875 0l-0.640625 1.71875l4.109375 0l0 2.40625l-5.015625 0l-1.375 3.6875l-1.921875 0l1.375 -3.6875l-2.578125 0l0 -2.40625l3.46875 0z" fill-rule="nonzero"></path><path fill="#000000" d="m493.90674 254.071q-0.53125 -0.625 -1.90625 -0.625q-1.40625 0 -2.3125 0.9375q-0.9375 0.90625 -0.9375 2.3124847q0 0.984375 0.5 1.640625l4.65625 -4.2656097zm-1.90625 5.8749847q1.40625 0 2.3125 -0.9375q0.9375 -0.90625 0.9375 -2.3125q0 -1.1249847 -0.40625 -1.6562347l-4.71875 4.3281097q0.625 0.578125 1.875 0.578125zm0 1.296875q-1.703125 0 -2.8125 -0.984375l-1.140625 0.96875l-1.0 -0.984375l1.140625 -0.984375q-0.734375 -0.859375 -0.734375 -2.5625q0 -1.9374847 1.21875 -3.1718597q1.390625 -1.375 3.328125 -1.375q1.859375 0 2.84375 0.96875l1.1875 -1.03125l1.0 0.984375l-1.234375 1.078125q0.75 0.921875 0.75 2.5468597q0 1.9375 -1.140625 3.09375q-1.46875 1.453125 -3.40625 1.453125z" fill-rule="nonzero"></path><path fill="#000000" d="m117.25 307.91473l0 -9.859375l1.5 0l0 1.40625q1.09375 -1.625 3.140625 -1.625q0.890625 0 1.640625 0.328125q0.75 0.3125 1.109375 0.84375q0.375 0.515625 0.53125 1.21875q0.09375 0.46875 0.09375 1.625l0 6.0625l-1.671875 0l0 -6.0q0 -1.015625 -0.203125 -1.515625q-0.1875 -0.515625 -0.6875 -0.8125q-0.5 -0.296875 -1.171875 -0.296875q-1.0625 0 -1.84375 0.671875q-0.765625 0.671875 -0.765625 2.578125l0 5.375l-1.671875 0zm13.563217 4.0q-1.375 -1.75 -2.328125 -4.078125q-0.953125 -2.34375 -0.953125 -4.84375q0 -2.21875 0.703125 -4.234375q0.84375 -2.34375 2.578125 -4.671875l1.203125 0q-1.125 1.921875 -1.484375 2.75q-0.5625 1.28125 -0.890625 2.671875q-0.40625 1.734375 -0.40625 3.484375q0 4.46875 2.78125 8.921875l-1.203125 0z" fill-rule="nonzero"></path><path fill="#000000" d="m136.35402 294.32098l1.8125 0l-1.734375 8.359375q-0.21875 1.03125 -0.21875 1.53125q0 1.09375 0.859375 1.765625q0.875 0.671875 2.171875 0.671875q1.046875 0 1.9375 -0.484375q0.890625 -0.484375 1.40625 -1.40625q0.53125 -0.921875 0.953125 -2.953125l1.5625 -7.484375l1.8125 0l-1.65625 7.96875q-0.421875 2.046875 -1.125 3.234375q-0.6875 1.1875 -1.921875 1.90625q-1.234375 0.71875 -2.875 0.71875q-1.53125 0 -2.671875 -0.5q-1.125 -0.515625 -1.6875 -1.40625q-0.546875 -0.90625 -0.546875 -2.046875q0 -0.71875 0.375 -2.453125l1.546875 -7.421875zm10.488571 10.21875l1.6875 -0.09375q0 0.71875 0.21875 1.234375q0.21875 0.515625 0.8125 0.84375q0.609375 0.3125 1.40625 0.3125q1.109375 0 1.671875 -0.4375q0.5625 -0.453125 0.5625 -1.046875q0 -0.4375 -0.34375 -0.828125q-0.34375 -0.390625 -1.671875 -0.953125q-1.328125 -0.578125 -1.703125 -0.8125q-0.625 -0.375 -0.9375 -0.890625q-0.3125 -0.515625 -0.3125 -1.1875q0 -1.171875 0.921875 -2.0q0.9375 -0.84375 2.609375 -0.84375q1.84375 0 2.8125 0.859375q0.96875 0.859375 1.015625 2.265625l-1.640625 0.109375q-0.046875 -0.890625 -0.640625 -1.40625q-0.59375 -0.53125 -1.671875 -0.53125q-0.875 0 -1.359375 0.40625q-0.484375 0.390625 -0.484375 0.859375q0 0.46875 0.421875 0.8125q0.28125 0.25 1.4375 0.75q1.9375 0.828125 2.4375 1.3125q0.796875 0.765625 0.796875 1.875q0 0.734375 -0.453125 1.4375q-0.453125 0.703125 -1.375 1.125q-0.921875 0.421875 -2.171875 0.421875q-1.703125 0 -2.90625 -0.84375q-1.203125 -0.84375 -1.140625 -2.75zm15.90625 1.59375q-1.78125 2.0 -3.625 2.0q-1.140625 0 -1.84375 -0.640625q-0.703125 -0.65625 -0.703125 -1.609375q0 -0.625 0.3125 -2.140625l1.1875 -5.6875l1.6875 0l-1.328125 6.3125q-0.15625 0.78125 -0.15625 1.21875q0 0.5625 0.328125 0.875q0.34375 0.296875 1.0 0.296875q0.703125 0 1.375 -0.34375q0.671875 -0.34375 1.15625 -0.921875q0.5 -0.578125 0.796875 -1.375q0.203125 -0.515625 0.484375 -1.796875l0.890625 -4.265625l1.671875 0l-2.0625 9.859375l-1.546875 0l0.375 -1.78125zm10.297592 0.5625q-0.875 0.75 -1.6875 1.09375q-0.8125 0.34375 -1.71875 0.34375q-1.375 0 -2.21875 -0.796875q-0.828125 -0.796875 -0.828125 -2.0625q0 -0.8125 0.375 -1.453125q0.390625 -0.640625 1.0 -1.015625q0.625 -0.390625 1.53125 -0.5625q0.5625 -0.109375 2.140625 -0.171875q1.578125 -0.0625 2.265625 -0.328125q0.203125 -0.6875 0.203125 -1.140625q0 -0.59375 -0.4375 -0.921875q-0.578125 -0.46875 -1.703125 -0.46875q-1.046875 0 -1.734375 0.46875q-0.671875 0.46875 -0.96875 1.328125l-1.703125 -0.140625q0.515625 -1.46875 1.640625 -2.25q1.140625 -0.78125 2.859375 -0.78125q1.828125 0 2.890625 0.875q0.8125 0.65625 0.8125 1.6875q0 0.796875 -0.234375 1.828125l-0.546875 2.453125q-0.25 1.171875 -0.25 1.890625q0 0.46875 0.203125 1.34375l-1.703125 0q-0.140625 -0.484375 -0.1875 -1.21875zm0.609375 -3.765625q-0.34375 0.125 -0.75 0.203125q-0.40625 0.078125 -1.34375 0.15625q-1.46875 0.140625 -2.078125 0.34375q-0.59375 0.1875 -0.90625 0.625q-0.3125 0.4375 -0.3125 0.96875q0 0.703125 0.484375 1.15625q0.5 0.453125 1.390625 0.453125q0.84375 0 1.609375 -0.4375q0.765625 -0.4375 1.203125 -1.21875q0.453125 -0.796875 0.703125 -2.25zm-2.6875 -6.0625l1.75 -2.546875l2.109375 0l-2.453125 2.546875l-1.40625 0zm5.797592 11.046875l2.0625 -9.859375l1.484375 0l-0.421875 2.015625q0.765625 -1.140625 1.484375 -1.6875q0.734375 -0.546875 1.5 -0.546875q0.5 0 1.234375 0.359375l-0.6875 1.5625q-0.4375 -0.3125 -0.953125 -0.3125q-0.875 0 -1.8125 0.984375q-0.921875 0.984375 -1.453125 3.53125l-0.828125 3.953125l-1.609375 0zm8.603302 -11.703125l0.40625 -1.890625l1.65625 0l-0.390625 1.890625l-1.671875 0zm-2.453125 11.703125l2.0625 -9.859375l1.6875 0l-2.0625 9.859375l-1.6875 0zm4.504196 -3.734375q0 -2.890625 1.703125 -4.78125q1.40625 -1.5625 3.671875 -1.5625q1.78125 0 2.875 1.125q1.09375 1.109375 1.09375 3.0q0 1.6875 -0.6875 3.15625q-0.6875 1.453125 -1.953125 2.234375q-1.265625 0.78125 -2.671875 0.78125q-1.15625 0 -2.09375 -0.484375q-0.9375 -0.5 -1.4375 -1.390625q-0.5 -0.90625 -0.5 -2.078125zm1.6875 -0.171875q0 1.390625 0.65625 2.109375q0.671875 0.71875 1.703125 0.71875q0.546875 0 1.0625 -0.21875q0.53125 -0.21875 0.984375 -0.65625q0.46875 -0.453125 0.78125 -1.015625q0.328125 -0.578125 0.515625 -1.234375q0.28125 -0.921875 0.28125 -1.765625q0 -1.328125 -0.671875 -2.0625q-0.671875 -0.75 -1.6875 -0.75q-0.78125 0 -1.4375 0.375q-0.65625 0.375 -1.1875 1.109375q-0.515625 0.71875 -0.765625 1.6875q-0.234375 0.953125 -0.234375 1.703125zm8.547592 0.53125l1.6875 -0.09375q0 0.71875 0.21875 1.234375q0.21875 0.515625 0.8125 0.84375q0.609375 0.3125 1.40625 0.3125q1.109375 0 1.671875 -0.4375q0.5625 -0.453125 0.5625 -1.046875q0 -0.4375 -0.34375 -0.828125q-0.34375 -0.390625 -1.671875 -0.953125q-1.328125 -0.578125 -1.703125 -0.8125q-0.625 -0.375 -0.9375 -0.890625q-0.3125 -0.515625 -0.3125 -1.1875q0 -1.171875 0.921875 -2.0q0.9375 -0.84375 2.609375 -0.84375q1.84375 0 2.8125 0.859375q0.96875 0.859375 1.015625 2.265625l-1.640625 0.109375q-0.046875 -0.890625 -0.640625 -1.40625q-0.59375 -0.53125 -1.671875 -0.53125q-0.875 0 -1.359375 0.40625q-0.484375 0.390625 -0.484375 0.859375q0 0.46875 0.421875 0.8125q0.28125 0.25 1.4375 0.75q1.9375 0.828125 2.4375 1.3125q0.796875 0.765625 0.796875 1.875q0 0.734375 -0.453125 1.4375q-0.453125 0.703125 -1.375 1.125q-0.921875 0.421875 -2.171875 0.421875q-1.703125 0 -2.90625 -0.84375q-1.203125 -0.84375 -1.140625 -2.75z" fill-rule="nonzero"></path><path fill="#000000" d="m208.54599 311.91473l-1.1875 0q2.765625 -4.453125 2.765625 -8.921875q0 -1.734375 -0.390625 -3.453125q-0.328125 -1.390625 -0.890625 -2.671875q-0.359375 -0.84375 -1.484375 -2.78125l1.1875 0q1.75 2.328125 2.578125 4.671875q0.71875 2.015625 0.71875 4.234375q0 2.5 -0.96875 4.84375q-0.953125 2.328125 -2.328125 4.078125z" fill-rule="nonzero"></path><path fill="#000000" d="m226.47322 303.00848l-7.46875 0l0 -1.96875l7.46875 0l0 1.96875zm0.09375 -4.609375q-1.0 1.796875 -2.5625 1.796875q-0.78125 0 -1.84375 -0.65625q-0.265625 -0.15625 -0.6875 -0.15625q-0.4375 0 -1.203125 1.21875l-1.375 -1.59375q1.265625 -1.75 2.515625 -1.75q0.765625 0 1.375 0.34375q0.859375 0.46875 1.21875 0.46875q0.484375 0 1.078125 -1.25l1.484375 1.578125z" fill-rule="nonzero"></path><path fill="#000000" d="m233.06277 304.35223l1.765625 -0.15625q0.1875 1.28125 0.890625 1.9375q0.71875 0.640625 1.71875 0.640625q1.203125 0 2.03125 -0.90625q0.84375 -0.90625 0.84375 -2.421875q0 -1.421875 -0.8125 -2.25q-0.796875 -0.828125 -2.09375 -0.828125q-0.796875 0 -1.453125 0.375q-0.640625 0.359375 -1.015625 0.953125l-1.578125 -0.203125l1.328125 -7.0l6.765625 0l0 1.609375l-5.4375 0l-0.734375 3.640625q1.234375 -0.84375 2.578125 -0.84375q1.78125 0 3.0 1.234375q1.234375 1.234375 1.234375 3.171875q0 1.84375 -1.078125 3.1875q-1.3125 1.65625 -3.578125 1.65625q-1.859375 0 -3.03125 -1.03125q-1.171875 -1.046875 -1.34375 -2.765625zm10.375717 -3.140625q0 -2.421875 0.5 -3.890625q0.5 -1.46875 1.46875 -2.265625q0.984375 -0.796875 2.46875 -0.796875q1.09375 0 1.921875 0.4375q0.828125 0.4375 1.359375 1.28125q0.546875 0.828125 0.84375 2.015625q0.3125 1.1875 0.3125 3.21875q0 2.390625 -0.5 3.859375q-0.484375 1.46875 -1.46875 2.28125q-0.96875 0.796875 -2.46875 0.796875q-1.96875 0 -3.078125 -1.40625q-1.359375 -1.703125 -1.359375 -5.53125zm1.71875 0q0 3.34375 0.78125 4.453125q0.796875 1.109375 1.9375 1.109375q1.15625 0 1.9375 -1.109375q0.78125 -1.125 0.78125 -4.453125q0 -3.359375 -0.78125 -4.46875q-0.78125 -1.109375 -1.953125 -1.109375q-1.15625 0 -1.828125 0.984375q-0.875 1.234375 -0.875 4.59375zm9.563217 -1.25l0 -1.90625l1.90625 0l0 1.90625l-1.90625 0zm0 7.953125l0 -1.90625l1.90625 0l0 1.90625q0 1.046875 -0.375 1.6875q-0.375 0.65625 -1.171875 1.0l-0.46875 -0.71875q0.53125 -0.21875 0.78125 -0.671875q0.25 -0.453125 0.28125 -1.296875l-0.953125 0zm25.479004 0l0 -9.859375l1.5 0l0 1.40625q1.09375 -1.625 3.140625 -1.625q0.890625 0 1.640625 0.328125q0.75 0.3125 1.109375 0.84375q0.375 0.515625 0.53125 1.21875q0.09375 0.46875 0.09375 1.625l0 6.0625l-1.671875 0l0 -6.0q0 -1.015625 -0.203125 -1.515625q-0.1875 -0.515625 -0.6875 -0.8125q-0.5 -0.296875 -1.171875 -0.296875q-1.0625 0 -1.84375 0.671875q-0.765625 0.671875 -0.765625 2.578125l0 5.375l-1.671875 0zm13.563232 4.0q-1.375 -1.75 -2.328125 -4.078125q-0.953125 -2.34375 -0.953125 -4.84375q0 -2.21875 0.703125 -4.234375q0.84375 -2.34375 2.578125 -4.671875l1.203125 0q-1.125 1.921875 -1.484375 2.75q-0.5625 1.28125 -0.890625 2.671875q-0.40625 1.734375 -0.40625 3.484375q0 4.46875 2.78125 8.921875l-1.203125 0z" fill-rule="nonzero"></path><path fill="#000000" d="m295.16287 307.91473l7.703125 -13.59375l2.140625 0l2.25 13.59375l-1.765625 0l-0.65625 -3.921875l-5.5 0l-2.1875 3.921875l-1.984375 0zm4.953125 -5.3125l4.5 0l-0.53125 -3.421875q-0.3125 -2.03125 -0.375 -3.375q-0.46875 1.15625 -1.359375 2.765625l-2.234375 4.03125zm8.646698 1.9375l1.6875 -0.09375q0 0.71875 0.21875 1.234375q0.21875 0.515625 0.8125 0.84375q0.609375 0.3125 1.40625 0.3125q1.109375 0 1.671875 -0.4375q0.5625 -0.453125 0.5625 -1.046875q0 -0.4375 -0.34375 -0.828125q-0.34375 -0.390625 -1.671875 -0.953125q-1.328125 -0.578125 -1.703125 -0.8125q-0.625 -0.375 -0.9375 -0.890625q-0.3125 -0.515625 -0.3125 -1.1875q0 -1.171875 0.921875 -2.0q0.9375 -0.84375 2.609375 -0.84375q1.84375 0 2.8125 0.859375q0.96875 0.859375 1.015625 2.265625l-1.640625 0.109375q-0.046875 -0.890625 -0.640625 -1.40625q-0.59375 -0.53125 -1.671875 -0.53125q-0.875 0 -1.359375 0.40625q-0.484375 0.390625 -0.484375 0.859375q0 0.46875 0.421875 0.8125q0.28125 0.25 1.4375 0.75q1.9375 0.828125 2.4375 1.3125q0.796875 0.765625 0.796875 1.875q0 0.734375 -0.453125 1.4375q-0.453125 0.703125 -1.375 1.125q-0.921875 0.421875 -2.171875 0.421875q-1.703125 0 -2.90625 -0.84375q-1.203125 -0.84375 -1.140625 -2.75zm9.328125 0l1.6875 -0.09375q0 0.71875 0.21875 1.234375q0.21875 0.515625 0.8125 0.84375q0.609375 0.3125 1.40625 0.3125q1.109375 0 1.671875 -0.4375q0.5625 -0.453125 0.5625 -1.046875q0 -0.4375 -0.34375 -0.828125q-0.34375 -0.390625 -1.671875 -0.953125q-1.328125 -0.578125 -1.703125 -0.8125q-0.625 -0.375 -0.9375 -0.890625q-0.3125 -0.515625 -0.3125 -1.1875q0 -1.171875 0.921875 -2.0q0.9375 -0.84375 2.609375 -0.84375q1.84375 0 2.8125 0.859375q0.96875 0.859375 1.015625 2.265625l-1.640625 0.109375q-0.046875 -0.890625 -0.640625 -1.40625q-0.59375 -0.53125 -1.671875 -0.53125q-0.875 0 -1.359375 0.40625q-0.484375 0.390625 -0.484375 0.859375q0 0.46875 0.421875 0.8125q0.28125 0.25 1.4375 0.75q1.9375 0.828125 2.4375 1.3125q0.796875 0.765625 0.796875 1.875q0 0.734375 -0.453125 1.4375q-0.453125 0.703125 -1.375 1.125q-0.921875 0.421875 -2.171875 0.421875q-1.703125 0 -2.90625 -0.84375q-1.203125 -0.84375 -1.140625 -2.75zm9.46875 -0.359375q0 -2.890625 1.703125 -4.78125q1.40625 -1.5625 3.671875 -1.5625q1.78125 0 2.875 1.125q1.09375 1.109375 1.09375 3.0q0 1.6875 -0.6875 3.15625q-0.6875 1.453125 -1.953125 2.234375q-1.265625 0.78125 -2.671875 0.78125q-1.15625 0 -2.09375 -0.484375q-0.9375 -0.5 -1.4375 -1.390625q-0.5 -0.90625 -0.5 -2.078125zm1.6875 -0.171875q0 1.390625 0.65625 2.109375q0.671875 0.71875 1.703125 0.71875q0.546875 0 1.0625 -0.21875q0.53125 -0.21875 0.984375 -0.65625q0.46875 -0.453125 0.78125 -1.015625q0.328125 -0.578125 0.515625 -1.234375q0.28125 -0.921875 0.28125 -1.765625q0 -1.328125 -0.671875 -2.0625q-0.671875 -0.75 -1.6875 -0.75q-0.78125 0 -1.4375 0.375q-0.65625 0.375 -1.1875 1.109375q-0.515625 0.71875 -0.765625 1.6875q-0.234375 0.953125 -0.234375 1.703125zm15.203857 0.3125l1.671875 0.171875q-0.625 1.859375 -1.796875 2.75q-1.15625 0.890625 -2.640625 0.890625q-1.609375 0 -2.609375 -1.03125q-1.0 -1.046875 -1.0 -2.90625q0 -1.609375 0.640625 -3.171875q0.640625 -1.5625 1.828125 -2.375q1.203125 -0.8125 2.734375 -0.8125q1.578125 0 2.5 0.90625q0.9375 0.890625 0.9375 2.359375l-1.65625 0.109375q0 -0.9375 -0.53125 -1.453125q-0.53125 -0.53125 -1.40625 -0.53125q-1.015625 0 -1.765625 0.640625q-0.734375 0.640625 -1.15625 1.9375q-0.421875 1.296875 -0.421875 2.515625q0 1.25 0.546875 1.890625q0.5625 0.625 1.375 0.625q0.828125 0 1.5625 -0.609375q0.75 -0.625 1.1875 -1.90625zm4.90625 -8.109375l0.40625 -1.890625l1.65625 0l-0.390625 1.890625l-1.671875 0zm-2.453125 11.703125l2.0625 -9.859375l1.6875 0l-2.0625 9.859375l-1.6875 0zm10.863556 -1.21875q-0.875 0.75 -1.6875 1.09375q-0.8125 0.34375 -1.71875 0.34375q-1.375 0 -2.21875 -0.796875q-0.828125 -0.796875 -0.828125 -2.0625q0 -0.8125 0.375 -1.453125q0.390625 -0.640625 1.0 -1.015625q0.625 -0.390625 1.53125 -0.5625q0.5625 -0.109375 2.140625 -0.171875q1.578125 -0.0625 2.265625 -0.328125q0.203125 -0.6875 0.203125 -1.140625q0 -0.59375 -0.4375 -0.921875q-0.578125 -0.46875 -1.703125 -0.46875q-1.046875 0 -1.734375 0.46875q-0.671875 0.46875 -0.96875 1.328125l-1.703125 -0.140625q0.515625 -1.46875 1.640625 -2.25q1.140625 -0.78125 2.859375 -0.78125q1.828125 0 2.890625 0.875q0.8125 0.65625 0.8125 1.6875q0 0.796875 -0.234375 1.828125l-0.546875 2.453125q-0.25 1.171875 -0.25 1.890625q0 0.46875 0.203125 1.34375l-1.703125 0q-0.140625 -0.484375 -0.1875 -1.21875zm0.609375 -3.765625q-0.34375 0.125 -0.75 0.203125q-0.40625 0.078125 -1.34375 0.15625q-1.46875 0.140625 -2.078125 0.34375q-0.59375 0.1875 -0.90625 0.625q-0.3125 0.4375 -0.3125 0.96875q0 0.703125 0.484375 1.15625q0.5 0.453125 1.390625 0.453125q0.84375 0 1.609375 -0.4375q0.765625 -0.4375 1.203125 -1.21875q0.453125 -0.796875 0.703125 -2.25zm9.766327 3.5625q-1.453125 1.640625 -3.015625 1.640625q-1.40625 0 -2.34375 -1.03125q-0.921875 -1.03125 -0.921875 -3.0q0 -1.796875 0.734375 -3.28125q0.75 -1.5 1.84375 -2.234375q1.109375 -0.75 2.234375 -0.75q1.828125 0 2.765625 1.78125l1.109375 -5.296875l1.671875 0l-2.828125 13.59375l-1.546875 0l0.296875 -1.421875zm-4.609375 -2.703125q0 1.03125 0.203125 1.625q0.203125 0.59375 0.6875 0.984375q0.5 0.390625 1.1875 0.390625q1.140625 0 2.0625 -1.1875q1.25 -1.578125 1.25 -3.890625q0 -1.171875 -0.609375 -1.828125q-0.609375 -0.65625 -1.546875 -0.65625q-0.59375 0 -1.09375 0.265625q-0.5 0.265625 -0.984375 0.921875q-0.484375 0.640625 -0.828125 1.640625q-0.328125 0.984375 -0.328125 1.734375zm8.625732 0.390625q0 -2.890625 1.703125 -4.78125q1.40625 -1.5625 3.671875 -1.5625q1.78125 0 2.875 1.125q1.09375 1.109375 1.09375 3.0q0 1.6875 -0.6875 3.15625q-0.6875 1.453125 -1.953125 2.234375q-1.265625 0.78125 -2.671875 0.78125q-1.15625 0 -2.09375 -0.484375q-0.9375 -0.5 -1.4375 -1.390625q-0.5 -0.90625 -0.5 -2.078125zm1.6875 -0.171875q0 1.390625 0.65625 2.109375q0.671875 0.71875 1.703125 0.71875q0.546875 0 1.0625 -0.21875q0.53125 -0.21875 0.984375 -0.65625q0.46875 -0.453125 0.78125 -1.015625q0.328125 -0.578125 0.515625 -1.234375q0.28125 -0.921875 0.28125 -1.765625q0 -1.328125 -0.671875 -2.0625q-0.671875 -0.75 -1.6875 -0.75q-0.78125 0 -1.4375 0.375q-0.65625 0.375 -1.1875 1.109375q-0.515625 0.71875 -0.765625 1.6875q-0.234375 0.953125 -0.234375 1.703125zm8.547607 0.53125l1.6875 -0.09375q0 0.71875 0.21875 1.234375q0.21875 0.515625 0.8125 0.84375q0.609375 0.3125 1.40625 0.3125q1.109375 0 1.671875 -0.4375q0.5625 -0.453125 0.5625 -1.046875q0 -0.4375 -0.34375 -0.828125q-0.34375 -0.390625 -1.671875 -0.953125q-1.328125 -0.578125 -1.703125 -0.8125q-0.625 -0.375 -0.9375 -0.890625q-0.3125 -0.515625 -0.3125 -1.1875q0 -1.171875 0.921875 -2.0q0.9375 -0.84375 2.609375 -0.84375q1.84375 0 2.8125 0.859375q0.96875 0.859375 1.015625 2.265625l-1.640625 0.109375q-0.046875 -0.890625 -0.640625 -1.40625q-0.59375 -0.53125 -1.671875 -0.53125q-0.875 0 -1.359375 0.40625q-0.484375 0.390625 -0.484375 0.859375q0 0.46875 0.421875 0.8125q0.28125 0.25 1.4375 0.75q1.9375 0.828125 2.4375 1.3125q0.796875 0.765625 0.796875 1.875q0 0.734375 -0.453125 1.4375q-0.453125 0.703125 -1.375 1.125q-0.921875 0.421875 -2.171875 0.421875q-1.703125 0 -2.90625 -0.84375q-1.203125 -0.84375 -1.140625 -2.75z" fill-rule="nonzero"></path><path fill="#000000" d="m393.2854 311.91473l-1.1875 0q2.765625 -4.453125 2.765625 -8.921875q0 -1.734375 -0.390625 -3.453125q-0.328125 -1.390625 -0.890625 -2.671875q-0.359375 -0.84375 -1.484375 -2.78125l1.1875 0q1.75 2.328125 2.578125 4.671875q0.71875 2.015625 0.71875 4.234375q0 2.5 -0.96875 4.84375q-0.953125 2.328125 -2.328125 4.078125z" fill-rule="nonzero"></path><path fill="#000000" d="m403.1189 300.3366l0 -2.390625l9.515625 0l0 2.390625l-9.515625 0zm0 4.125l0 -2.40625l9.515625 0l0 2.40625l-9.515625 0z" fill-rule="nonzero"></path><path fill="#000000" d="m419.21277 304.32098l1.671875 -0.21875q0.28125 1.421875 0.96875 2.046875q0.703125 0.625 1.6875 0.625q1.1875 0 2.0 -0.8125q0.8125 -0.828125 0.8125 -2.03125q0 -1.140625 -0.765625 -1.890625q-0.75 -0.75 -1.90625 -0.75q-0.46875 0 -1.171875 0.1875l0.1875 -1.46875q0.15625 0.015625 0.265625 0.015625q1.0625 0 1.90625 -0.546875q0.859375 -0.5625 0.859375 -1.71875q0 -0.921875 -0.625 -1.515625q-0.609375 -0.609375 -1.59375 -0.609375q-0.96875 0 -1.625 0.609375q-0.640625 0.609375 -0.828125 1.84375l-1.671875 -0.296875q0.296875 -1.6875 1.375 -2.609375q1.09375 -0.921875 2.71875 -0.921875q1.109375 0 2.046875 0.484375q0.9375 0.46875 1.421875 1.296875q0.5 0.828125 0.5 1.75q0 0.890625 -0.46875 1.609375q-0.46875 0.71875 -1.40625 1.15625q1.21875 0.265625 1.875 1.15625q0.671875 0.875 0.671875 2.1875q0 1.78125 -1.296875 3.015625q-1.296875 1.234375 -3.28125 1.234375q-1.796875 0 -2.984375 -1.0625q-1.171875 -1.0625 -1.34375 -2.765625zm16.656982 3.59375l-1.671875 0l0 -10.640625q-0.59375 0.578125 -1.578125 1.15625q-0.984375 0.5625 -1.765625 0.859375l0 -1.625q1.40625 -0.65625 2.453125 -1.59375q1.046875 -0.9375 1.484375 -1.8125l1.078125 0l0 13.65625z" fill-rule="nonzero"></path><path fill="#000000" d="m117.25 329.91473l0 -9.859375l1.5 0l0 1.40625q1.09375 -1.625 3.140625 -1.625q0.890625 0 1.640625 0.328125q0.75 0.3125 1.109375 0.84375q0.375 0.515625 0.53125 1.21875q0.09375 0.46875 0.09375 1.625l0 6.0625l-1.671875 0l0 -6.0q0 -1.015625 -0.203125 -1.515625q-0.1875 -0.515625 -0.6875 -0.8125q-0.5 -0.296875 -1.171875 -0.296875q-1.0625 0 -1.84375 0.671875q-0.765625 0.671875 -0.765625 2.578125l0 5.375l-1.671875 0zm13.563217 4.0q-1.375 -1.75 -2.328125 -4.078125q-0.953125 -2.34375 -0.953125 -4.84375q0 -2.21875 0.703125 -4.234375q0.84375 -2.34375 2.578125 -4.671875l1.203125 0q-1.125 1.921875 -1.484375 2.75q-0.5625 1.28125 -0.890625 2.671875q-0.40625 1.734375 -0.40625 3.484375q0 4.46875 2.78125 8.921875l-1.203125 0z" fill-rule="nonzero"></path><path fill="#000000" d="m136.35402 316.32098l1.8125 0l-1.734375 8.359375q-0.21875 1.03125 -0.21875 1.53125q0 1.09375 0.859375 1.765625q0.875 0.671875 2.171875 0.671875q1.046875 0 1.9375 -0.484375q0.890625 -0.484375 1.40625 -1.40625q0.53125 -0.921875 0.953125 -2.953125l1.5625 -7.484375l1.8125 0l-1.65625 7.96875q-0.421875 2.046875 -1.125 3.234375q-0.6875 1.1875 -1.921875 1.90625q-1.234375 0.71875 -2.875 0.71875q-1.53125 0 -2.671875 -0.5q-1.125 -0.515625 -1.6875 -1.40625q-0.546875 -0.90625 -0.546875 -2.046875q0 -0.71875 0.375 -2.453125l1.546875 -7.421875zm10.488571 10.21875l1.6875 -0.09375q0 0.71875 0.21875 1.234375q0.21875 0.515625 0.8125 0.84375q0.609375 0.3125 1.40625 0.3125q1.109375 0 1.671875 -0.4375q0.5625 -0.453125 0.5625 -1.046875q0 -0.4375 -0.34375 -0.828125q-0.34375 -0.390625 -1.671875 -0.953125q-1.328125 -0.578125 -1.703125 -0.8125q-0.625 -0.375 -0.9375 -0.890625q-0.3125 -0.515625 -0.3125 -1.1875q0 -1.171875 0.921875 -2.0q0.9375 -0.84375 2.609375 -0.84375q1.84375 0 2.8125 0.859375q0.96875 0.859375 1.015625 2.265625l-1.640625 0.109375q-0.046875 -0.890625 -0.640625 -1.40625q-0.59375 -0.53125 -1.671875 -0.53125q-0.875 0 -1.359375 0.40625q-0.484375 0.390625 -0.484375 0.859375q0 0.46875 0.421875 0.8125q0.28125 0.25 1.4375 0.75q1.9375 0.828125 2.4375 1.3125q0.796875 0.765625 0.796875 1.875q0 0.734375 -0.453125 1.4375q-0.453125 0.703125 -1.375 1.125q-0.921875 0.421875 -2.171875 0.421875q-1.703125 0 -2.90625 -0.84375q-1.203125 -0.84375 -1.140625 -2.75zm15.90625 1.59375q-1.78125 2.0 -3.625 2.0q-1.140625 0 -1.84375 -0.640625q-0.703125 -0.65625 -0.703125 -1.609375q0 -0.625 0.3125 -2.140625l1.1875 -5.6875l1.6875 0l-1.328125 6.3125q-0.15625 0.78125 -0.15625 1.21875q0 0.5625 0.328125 0.875q0.34375 0.296875 1.0 0.296875q0.703125 0 1.375 -0.34375q0.671875 -0.34375 1.15625 -0.921875q0.5 -0.578125 0.796875 -1.375q0.203125 -0.515625 0.484375 -1.796875l0.890625 -4.265625l1.671875 0l-2.0625 9.859375l-1.546875 0l0.375 -1.78125zm10.297592 0.5625q-0.875 0.75 -1.6875 1.09375q-0.8125 0.34375 -1.71875 0.34375q-1.375 0 -2.21875 -0.796875q-0.828125 -0.796875 -0.828125 -2.0625q0 -0.8125 0.375 -1.453125q0.390625 -0.640625 1.0 -1.015625q0.625 -0.390625 1.53125 -0.5625q0.5625 -0.109375 2.140625 -0.171875q1.578125 -0.0625 2.265625 -0.328125q0.203125 -0.6875 0.203125 -1.140625q0 -0.59375 -0.4375 -0.921875q-0.578125 -0.46875 -1.703125 -0.46875q-1.046875 0 -1.734375 0.46875q-0.671875 0.46875 -0.96875 1.328125l-1.703125 -0.140625q0.515625 -1.46875 1.640625 -2.25q1.140625 -0.78125 2.859375 -0.78125q1.828125 0 2.890625 0.875q0.8125 0.65625 0.8125 1.6875q0 0.796875 -0.234375 1.828125l-0.546875 2.453125q-0.25 1.171875 -0.25 1.890625q0 0.46875 0.203125 1.34375l-1.703125 0q-0.140625 -0.484375 -0.1875 -1.21875zm0.609375 -3.765625q-0.34375 0.125 -0.75 0.203125q-0.40625 0.078125 -1.34375 0.15625q-1.46875 0.140625 -2.078125 0.34375q-0.59375 0.1875 -0.90625 0.625q-0.3125 0.4375 -0.3125 0.96875q0 0.703125 0.484375 1.15625q0.5 0.453125 1.390625 0.453125q0.84375 0 1.609375 -0.4375q0.765625 -0.4375 1.203125 -1.21875q0.453125 -0.796875 0.703125 -2.25zm-2.6875 -6.0625l1.75 -2.546875l2.109375 0l-2.453125 2.546875l-1.40625 0zm5.797592 11.046875l2.0625 -9.859375l1.484375 0l-0.421875 2.015625q0.765625 -1.140625 1.484375 -1.6875q0.734375 -0.546875 1.5 -0.546875q0.5 0 1.234375 0.359375l-0.6875 1.5625q-0.4375 -0.3125 -0.953125 -0.3125q-0.875 0 -1.8125 0.984375q-0.921875 0.984375 -1.453125 3.53125l-0.828125 3.953125l-1.609375 0zm8.603302 -11.703125l0.40625 -1.890625l1.65625 0l-0.390625 1.890625l-1.671875 0zm-2.453125 11.703125l2.0625 -9.859375l1.6875 0l-2.0625 9.859375l-1.6875 0zm4.504196 -3.734375q0 -2.890625 1.703125 -4.78125q1.40625 -1.5625 3.671875 -1.5625q1.78125 0 2.875 1.125q1.09375 1.109375 1.09375 3.0q0 1.6875 -0.6875 3.15625q-0.6875 1.453125 -1.953125 2.234375q-1.265625 0.78125 -2.671875 0.78125q-1.15625 0 -2.09375 -0.484375q-0.9375 -0.5 -1.4375 -1.390625q-0.5 -0.90625 -0.5 -2.078125zm1.6875 -0.171875q0 1.390625 0.65625 2.109375q0.671875 0.71875 1.703125 0.71875q0.546875 0 1.0625 -0.21875q0.53125 -0.21875 0.984375 -0.65625q0.46875 -0.453125 0.78125 -1.015625q0.328125 -0.578125 0.515625 -1.234375q0.28125 -0.921875 0.28125 -1.765625q0 -1.328125 -0.671875 -2.0625q-0.671875 -0.75 -1.6875 -0.75q-0.78125 0 -1.4375 0.375q-0.65625 0.375 -1.1875 1.109375q-0.515625 0.71875 -0.765625 1.6875q-0.234375 0.953125 -0.234375 1.703125zm8.547592 0.53125l1.6875 -0.09375q0 0.71875 0.21875 1.234375q0.21875 0.515625 0.8125 0.84375q0.609375 0.3125 1.40625 0.3125q1.109375 0 1.671875 -0.4375q0.5625 -0.453125 0.5625 -1.046875q0 -0.4375 -0.34375 -0.828125q-0.34375 -0.390625 -1.671875 -0.953125q-1.328125 -0.578125 -1.703125 -0.8125q-0.625 -0.375 -0.9375 -0.890625q-0.3125 -0.515625 -0.3125 -1.1875q0 -1.171875 0.921875 -2.0q0.9375 -0.84375 2.609375 -0.84375q1.84375 0 2.8125 0.859375q0.96875 0.859375 1.015625 2.265625l-1.640625 0.109375q-0.046875 -0.890625 -0.640625 -1.40625q-0.59375 -0.53125 -1.671875 -0.53125q-0.875 0 -1.359375 0.40625q-0.484375 0.390625 -0.484375 0.859375q0 0.46875 0.421875 0.8125q0.28125 0.25 1.4375 0.75q1.9375 0.828125 2.4375 1.3125q0.796875 0.765625 0.796875 1.875q0 0.734375 -0.453125 1.4375q-0.453125 0.703125 -1.375 1.125q-0.921875 0.421875 -2.171875 0.421875q-1.703125 0 -2.90625 -0.84375q-1.203125 -0.84375 -1.140625 -2.75z" fill-rule="nonzero"></path><path fill="#000000" d="m219.80322 329.91473l-1.90625 0l0 -5.5625q0 -2.34375 0.0625 -3.0q0.109375 -1.15625 0.4375 -1.921875q0.328125 -0.78125 1.03125 -1.515625q0.71875 -0.734375 1.75 -1.1875q1.046875 -0.46875 2.21875 -0.46875q1.125 0 2.140625 0.4375q1.015625 0.4375 1.765625 1.1875q0.765625 0.734375 1.09375 1.578125q0.34375 0.828125 0.453125 2.109375q0.046875 0.5 0.046875 2.78125l0 5.5625l-1.90625 0l0 -5.625q0 -1.953125 -0.046875 -2.5q-0.09375 -0.953125 -0.328125 -1.59375q-0.171875 -0.484375 -0.625 -0.953125q-0.453125 -0.484375 -1.15625 -0.796875q-0.703125 -0.3125 -1.453125 -0.3125q-0.734375 0 -1.46875 0.34375q-0.734375 0.328125 -1.203125 0.859375q-0.453125 0.53125 -0.640625 1.1875q-0.171875 0.640625 -0.234375 1.515625q-0.03125 0.46875 -0.03125 2.25l0 5.625z" fill-rule="nonzero"></path><path fill="#000000" d="m240.0334 329.91473l7.703125 -13.59375l2.140625 0l2.25 13.59375l-1.765625 0l-0.65625 -3.921875l-5.5 0l-2.1875 3.921875l-1.984375 0zm4.953125 -5.3125l4.5 0l-0.53125 -3.421875q-0.3125 -2.03125 -0.375 -3.375q-0.46875 1.15625 -1.359375 2.765625l-2.234375 4.03125zm8.646698 1.9375l1.6875 -0.09375q0 0.71875 0.21875 1.234375q0.21875 0.515625 0.81251526 0.84375q0.609375 0.3125 1.40625 0.3125q1.109375 0 1.671875 -0.4375q0.5625 -0.453125 0.5625 -1.046875q0 -0.4375 -0.34375 -0.828125q-0.34375 -0.390625 -1.671875 -0.953125q-1.328125 -0.578125 -1.703125 -0.8125q-0.62501526 -0.375 -0.93751526 -0.890625q-0.3125 -0.515625 -0.3125 -1.1875q0 -1.171875 0.921875 -2.0q0.93751526 -0.84375 2.6093903 -0.84375q1.84375 0 2.8125 0.859375q0.96875 0.859375 1.015625 2.265625l-1.640625 0.109375q-0.046875 -0.890625 -0.640625 -1.40625q-0.59375 -0.53125 -1.671875 -0.53125q-0.875 0 -1.359375 0.40625q-0.484375 0.390625 -0.484375 0.859375q0 0.46875 0.421875 0.8125q0.28125 0.25 1.4375 0.75q1.9375 0.828125 2.4375 1.3125q0.796875 0.765625 0.796875 1.875q0 0.734375 -0.453125 1.4375q-0.453125 0.703125 -1.375 1.125q-0.921875 0.421875 -2.171875 0.421875q-1.7031403 0 -2.9062653 -0.84375q-1.203125 -0.84375 -1.140625 -2.75zm9.32814 0l1.6875 -0.09375q0 0.71875 0.21875 1.234375q0.21875 0.515625 0.8125 0.84375q0.609375 0.3125 1.40625 0.3125q1.109375 0 1.671875 -0.4375q0.5625 -0.453125 0.5625 -1.046875q0 -0.4375 -0.34375 -0.828125q-0.34375 -0.390625 -1.671875 -0.953125q-1.328125 -0.578125 -1.703125 -0.8125q-0.625 -0.375 -0.9375 -0.890625q-0.3125 -0.515625 -0.3125 -1.1875q0 -1.171875 0.921875 -2.0q0.9375 -0.84375 2.609375 -0.84375q1.84375 0 2.8125 0.859375q0.96875 0.859375 1.015625 2.265625l-1.640625 0.109375q-0.046875 -0.890625 -0.640625 -1.40625q-0.59375 -0.53125 -1.671875 -0.53125q-0.875 0 -1.359375 0.40625q-0.484375 0.390625 -0.484375 0.859375q0 0.46875 0.421875 0.8125q0.28125 0.25 1.4375 0.75q1.9375 0.828125 2.4375 1.3125q0.796875 0.765625 0.796875 1.875q0 0.734375 -0.453125 1.4375q-0.453125 0.703125 -1.375 1.125q-0.921875 0.421875 -2.171875 0.421875q-1.703125 0 -2.90625 -0.84375q-1.203125 -0.84375 -1.140625 -2.75zm9.46875 -0.359375q0 -2.890625 1.703125 -4.78125q1.40625 -1.5625 3.671875 -1.5625q1.78125 0 2.875 1.125q1.09375 1.109375 1.09375 3.0q0 1.6875 -0.6875 3.15625q-0.6875 1.453125 -1.953125 2.234375q-1.265625 0.78125 -2.671875 0.78125q-1.15625 0 -2.09375 -0.484375q-0.9375 -0.5 -1.4375 -1.390625q-0.5 -0.90625 -0.5 -2.078125zm1.6875 -0.171875q0 1.390625 0.65625 2.109375q0.671875 0.71875 1.703125 0.71875q0.546875 0 1.0625 -0.21875q0.53125 -0.21875 0.984375 -0.65625q0.46875 -0.453125 0.78125 -1.015625q0.328125 -0.578125 0.515625 -1.234375q0.28125 -0.921875 0.28125 -1.765625q0 -1.328125 -0.671875 -2.0625q-0.671875 -0.75 -1.6875 -0.75q-0.78125 0 -1.4375 0.375q-0.65625 0.375 -1.1875 1.109375q-0.515625 0.71875 -0.765625 1.6875q-0.234375 0.953125 -0.234375 1.703125zm15.203827 0.3125l1.671875 0.171875q-0.625 1.859375 -1.796875 2.75q-1.15625 0.890625 -2.640625 0.890625q-1.609375 0 -2.609375 -1.03125q-1.0 -1.046875 -1.0 -2.90625q0 -1.609375 0.640625 -3.171875q0.640625 -1.5625 1.828125 -2.375q1.203125 -0.8125 2.734375 -0.8125q1.578125 0 2.5 0.90625q0.9375 0.890625 0.9375 2.359375l-1.65625 0.109375q0 -0.9375 -0.53125 -1.453125q-0.53125 -0.53125 -1.40625 -0.53125q-1.015625 0 -1.765625 0.640625q-0.734375 0.640625 -1.15625 1.9375q-0.421875 1.296875 -0.421875 2.515625q0 1.25 0.546875 1.890625q0.5625 0.625 1.375 0.625q0.828125 0 1.5625 -0.609375q0.75 -0.625 1.1875 -1.90625zm4.90625 -8.109375l0.40625 -1.890625l1.65625 0l-0.390625 1.890625l-1.671875 0zm-2.453125 11.703125l2.0625 -9.859375l1.6875 0l-2.0625 9.859375l-1.6875 0zm10.863556 -1.21875q-0.875 0.75 -1.6875 1.09375q-0.8125 0.34375 -1.71875 0.34375q-1.375 0 -2.21875 -0.796875q-0.828125 -0.796875 -0.828125 -2.0625q0 -0.8125 0.375 -1.453125q0.390625 -0.640625 1.0 -1.015625q0.625 -0.390625 1.53125 -0.5625q0.5625 -0.109375 2.140625 -0.171875q1.578125 -0.0625 2.265625 -0.328125q0.203125 -0.6875 0.203125 -1.140625q0 -0.59375 -0.4375 -0.921875q-0.578125 -0.46875 -1.703125 -0.46875q-1.046875 0 -1.734375 0.46875q-0.671875 0.46875 -0.96875 1.328125l-1.703125 -0.140625q0.515625 -1.46875 1.640625 -2.25q1.140625 -0.78125 2.859375 -0.78125q1.828125 0 2.890625 0.875q0.8125 0.65625 0.8125 1.6875q0 0.796875 -0.234375 1.828125l-0.546875 2.453125q-0.25 1.171875 -0.25 1.890625q0 0.46875 0.203125 1.34375l-1.703125 0q-0.140625 -0.484375 -0.1875 -1.21875zm0.609375 -3.765625q-0.34375 0.125 -0.75 0.203125q-0.40625 0.078125 -1.34375 0.15625q-1.46875 0.140625 -2.078125 0.34375q-0.59375 0.1875 -0.90625 0.625q-0.3125 0.4375 -0.3125 0.96875q0 0.703125 0.484375 1.15625q0.5 0.453125 1.390625 0.453125q0.84375 0 1.609375 -0.4375q0.765625 -0.4375 1.203125 -1.21875q0.453125 -0.796875 0.703125 -2.25zm9.766357 3.5625q-1.453125 1.640625 -3.015625 1.640625q-1.40625 0 -2.34375 -1.03125q-0.921875 -1.03125 -0.921875 -3.0q0 -1.796875 0.734375 -3.28125q0.75 -1.5 1.84375 -2.234375q1.109375 -0.75 2.234375 -0.75q1.828125 0 2.765625 1.78125l1.109375 -5.296875l1.671875 0l-2.828125 13.59375l-1.546875 0l0.296875 -1.421875zm-4.609375 -2.703125q0 1.03125 0.203125 1.625q0.203125 0.59375 0.6875 0.984375q0.5 0.390625 1.1875 0.390625q1.140625 0 2.0625 -1.1875q1.25 -1.578125 1.25 -3.890625q0 -1.171875 -0.609375 -1.828125q-0.609375 -0.65625 -1.546875 -0.65625q-0.59375 0 -1.09375 0.265625q-0.5 0.265625 -0.984375 0.921875q-0.484375 0.640625 -0.828125 1.640625q-0.328125 0.984375 -0.328125 1.734375zm8.625732 0.390625q0 -2.890625 1.703125 -4.78125q1.40625 -1.5625 3.671875 -1.5625q1.78125 0 2.875 1.125q1.09375 1.109375 1.09375 3.0q0 1.6875 -0.6875 3.15625q-0.6875 1.453125 -1.953125 2.234375q-1.265625 0.78125 -2.671875 0.78125q-1.15625 0 -2.09375 -0.484375q-0.9375 -0.5 -1.4375 -1.390625q-0.5 -0.90625 -0.5 -2.078125zm1.6875 -0.171875q0 1.390625 0.65625 2.109375q0.671875 0.71875 1.703125 0.71875q0.546875 0 1.0625 -0.21875q0.53125 -0.21875 0.984375 -0.65625q0.46875 -0.453125 0.78125 -1.015625q0.328125 -0.578125 0.515625 -1.234375q0.28125 -0.921875 0.28125 -1.765625q0 -1.328125 -0.671875 -2.0625q-0.671875 -0.75 -1.6875 -0.75q-0.78125 0 -1.4375 0.375q-0.65625 0.375 -1.1875 1.109375q-0.515625 0.71875 -0.765625 1.6875q-0.234375 0.953125 -0.234375 1.703125zm8.547577 0.53125l1.6875 -0.09375q0 0.71875 0.21875 1.234375q0.21875 0.515625 0.8125 0.84375q0.609375 0.3125 1.40625 0.3125q1.109375 0 1.671875 -0.4375q0.5625 -0.453125 0.5625 -1.046875q0 -0.4375 -0.34375 -0.828125q-0.34375 -0.390625 -1.671875 -0.953125q-1.328125 -0.578125 -1.703125 -0.8125q-0.625 -0.375 -0.9375 -0.890625q-0.3125 -0.515625 -0.3125 -1.1875q0 -1.171875 0.921875 -2.0q0.9375 -0.84375 2.609375 -0.84375q1.84375 0 2.8125 0.859375q0.96875 0.859375 1.015625 2.265625l-1.640625 0.109375q-0.046875 -0.890625 -0.640625 -1.40625q-0.59375 -0.53125 -1.671875 -0.53125q-0.875 0 -1.359375 0.40625q-0.484375 0.390625 -0.484375 0.859375q0 0.46875 0.421875 0.8125q0.28125 0.25 1.4375 0.75q1.9375 0.828125 2.4375 1.3125q0.796875 0.765625 0.796875 1.875q0 0.734375 -0.453125 1.4375q-0.453125 0.703125 -1.375 1.125q-0.921875 0.421875 -2.171875 0.421875q-1.703125 0 -2.90625 -0.84375q-1.203125 -0.84375 -1.140625 -2.75z" fill-rule="nonzero"></path><path fill="#000000" d="m338.1559 333.91473l-1.1875 0q2.765625 -4.453125 2.765625 -8.921875q0 -1.734375 -0.390625 -3.453125q-0.328125 -1.390625 -0.890625 -2.671875q-0.359375 -0.84375 -1.484375 -2.78125l1.1875 0q1.75 2.328125 2.578125 4.671875q0.71875 2.015625 0.71875 4.234375q0 2.5 -0.96875 4.84375q-0.953125 2.328125 -2.328125 4.078125z" fill-rule="nonzero"></path><path fill="#000000" d="m356.08313 325.00848l-7.46875 0l0 -1.96875l7.46875 0l0 1.96875zm0.09375 -4.609375q-1.0 1.796875 -2.5625 1.796875q-0.78125 0 -1.84375 -0.65625q-0.265625 -0.15625 -0.6875 -0.15625q-0.4375 0 -1.203125 1.21875l-1.375 -1.59375q1.265625 -1.75 2.515625 -1.75q0.765625 0 1.375 0.34375q0.859375 0.46875 1.21875 0.46875q0.484375 0 1.078125 -1.25l1.484375 1.578125z" fill-rule="nonzero"></path><path fill="#000000" d="m371.45395 328.30536l0 1.609375l-8.984375 0q-0.015625 -0.609375 0.1875 -1.15625q0.34375 -0.921875 1.09375 -1.8125q0.765625 -0.890625 2.1875 -2.0625q2.21875 -1.8125 3.0 -2.875q0.78125 -1.0625 0.78125 -2.015625q0 -0.984375 -0.71875 -1.671875q-0.703125 -0.6875 -1.84375 -0.6875q-1.203125 0 -1.9375 0.734375q-0.71875 0.71875 -0.71875 2.0l-1.71875 -0.171875q0.171875 -1.921875 1.328125 -2.921875q1.15625 -1.015625 3.09375 -1.015625q1.953125 0 3.09375 1.09375q1.140625 1.078125 1.140625 2.6875q0 0.8125 -0.34375 1.609375q-0.328125 0.78125 -1.109375 1.65625q-0.765625 0.859375 -2.5625 2.390625q-1.5 1.265625 -1.9375 1.71875q-0.421875 0.4375 -0.703125 0.890625l6.671875 0zm1.5944519 -5.09375q0 -2.421875 0.5 -3.890625q0.5 -1.46875 1.46875 -2.265625q0.984375 -0.796875 2.46875 -0.796875q1.09375 0 1.921875 0.4375q0.828125 0.4375 1.359375 1.28125q0.546875 0.828125 0.84375 2.015625q0.3125 1.1875 0.3125 3.21875q0 2.390625 -0.5 3.859375q-0.484375 1.46875 -1.46875 2.28125q-0.96875 0.796875 -2.46875 0.796875q-1.96875 0 -3.078125 -1.40625q-1.359375 -1.703125 -1.359375 -5.53125zm1.71875 0q0 3.34375 0.78125 4.453125q0.796875 1.109375 1.9375 1.109375q1.15625 0 1.9375 -1.109375q0.78125 -1.125 0.78125 -4.453125q0 -3.359375 -0.78125 -4.46875q-0.78125 -1.109375 -1.953125 -1.109375q-1.15625 0 -1.828125 0.984375q-0.875 1.234375 -0.875 4.59375z" fill-rule="nonzero"></path></g></svg>

